<svg xmlns="http://www.w3.org/2000/svg" xmlns:xlink="http://www.w3.org/1999/xlink" version="1.1" id="Layer_1" x="0px"
    y="0px" viewBox="0 0 500 130.48" style="enable-background:new 0 0 500 130.48;" xml:space="preserve">
    <rect x="30.52" fill="#FCAF00" width="52.32" height="52.32" />
    <rect y="61.03" fill="#00E25A" width="52.32" height="52.32" />
    <rect x="61.04" y="61.03" fill="#3B88FF" width="52.32" height="52.32" />
    <path
        d="M177.11,103.04c-10.42,0-15.41-3.46-16.43-12.24h-14.47c0.51,15.41,11.73,24.16,31.52,24.16c16.4,0,28.35-8.24,28.35-23.03  c0-15.71-12.24-19.28-27.25-22.55c-10.79-2.33-15.89-4.08-15.89-9.99c0-5.21,5.21-8.56,13.15-8.56c7.55,0,13.26,3.65,14.07,11.01  h14.18c-1.13-14.69-11.73-22.74-28.14-22.74c-16.21,0-27.95,7.44-27.95,21.83c0,15.19,11.92,18.66,24.97,21.61  c11.14,2.55,18.07,3.97,18.07,11.12C191.29,100.39,184.66,103.04,177.11,103.04" />
    <path
        d="M247.4,113.35h13.88V79.18c0-11.44-7.25-19.6-18.07-19.6c-7.14,0-11.41,2.76-15.2,8.27h-0.29V40.41h-13.88v72.94h13.88  V83.66c0-7.14,4.48-12.03,10.6-12.03c5.8,0,9.07,3.97,9.07,9.58V113.35z" />
    <path
        d="M294.62,114.88c16.24,0,27.36-12.06,27.36-27.65c0-15.6-11.11-27.65-27.36-27.65c-16.22,0-27.33,12.06-27.33,27.65  C267.29,102.83,278.41,114.88,294.62,114.88 M294.62,70.1c8.48,0,13.26,6.93,13.26,17.13c0,10.2-4.78,17.02-13.26,17.02  c-8.56,0-13.26-6.82-13.26-17.02C281.36,77.03,286.06,70.1,294.62,70.1" />
    <path
        d="M357.47,59.58c-7.14,0-12.03,3.38-15.41,7.97h-0.3v-6.52H328.4v69.45h13.88v-23.06h0.22c2.95,4.48,7.73,7.46,15.09,7.46  c13.48,0,22.63-10.71,22.63-27.65C380.21,70.91,371.35,59.58,357.47,59.58 M354.62,103.34c-8.27,0-12.65-6.2-12.65-15.71  c0-9.37,3.46-16.83,12.14-16.83c8.56,0,12.03,6.95,12.03,16.83C366.14,97.54,361.66,103.34,354.62,103.34" />
    <path
        d="M453.07,97.73c-1.53,4-4.7,6.44-10.09,6.44c-7.87,0-12.35-4.99-13.37-13.07h37.94c0-18.66-8.97-31.52-25.8-31.52  c-15.3,0-25.8,12.06-25.8,27.55c0,15.62,9.77,27.76,27.11,27.76c13.48,0,21.75-7.86,23.68-17.15H453.07z M441.96,70.29  c6.31,0,10.68,4.59,11.11,11.22H429.8C431.03,74.69,434.6,70.29,441.96,70.29" />
    <path
        d="M469.91,61.03v9.18h7.25v30.69c0,9.91,7.44,12.54,14.17,12.54c5.51,0,8.67-0.19,8.67-0.19v-10.2c0,0-2.36,0.11-4.08,0.11  c-3.06,0-5.21-1.34-5.21-5.21V70.21h8.97v-9.18H487.6c0,0,2.55-1.45,3.11-4.91V44.7h-13.56v9.47c-0.21,5.76-7.25,6.84-7.25,6.84  l0.02,0.01H469.91z" />
    <path
        d="M382.06,61.03v9.18h7.25v30.69c0,9.91,7.44,12.54,14.17,12.54c5.51,0,8.67-0.19,8.67-0.19v-10.2c0,0-2.36,0.11-4.08,0.11  c-3.06,0-5.21-1.34-5.21-5.21V70.21h8.97v-9.18h-12.08c0,0,2.55-1.45,3.11-4.91V44.7h-13.56v9.47c-0.21,5.76-7.25,6.84-7.25,6.84  l0.02,0.01H382.06z" />
</svg>