<svg width="256" height="256" viewBox="0 0 256 256" fill="none" xmlns="http://www.w3.org/2000/svg">
<rect width="256" height="256" rx="9.9577" fill="#008A19"/>
<path fill-rule="evenodd" clip-rule="evenodd" d="M220.065 75.6784L126.96 23.8984L33.856 75.6784V179.238L126.96 231.018L220.065 179.238V75.6784ZM130.417 41.9581C128.03 40.6153 125.116 40.6153 122.728 41.9581L52.8033 81.2909C50.3342 82.6798 48.8061 85.2925 48.8061 88.1255V166.791C48.8061 169.624 50.3342 172.237 52.8033 173.626L122.728 212.959C122.754 212.973 122.779 212.987 122.805 213.001C122.845 213.023 122.885 213.045 122.925 213.066C123.907 213.582 124.971 213.876 126.047 213.948C126.222 213.96 126.398 213.966 126.573 213.966L126.576 213.966C128.05 213.966 129.429 213.559 130.607 212.852L200.342 173.626C202.812 172.237 204.34 169.624 204.34 166.791V88.3951C204.389 87.0043 204.068 85.5828 203.336 84.2811C202.569 82.9178 201.456 81.8722 200.168 81.1928L165.541 61.7153C165.44 61.6553 165.338 61.5977 165.234 61.5425L130.417 41.9581ZM188.656 162.205L134.418 192.714V132.045L188.656 101.536V162.205ZM180.505 88.1265L126.575 118.462L107.606 107.792L161.536 77.4567L180.505 88.1265ZM87.8198 114.657C87.7802 114.635 87.7408 114.613 87.7016 114.59L64.4895 101.534V162.205L118.735 192.718V132.047L87.8198 114.657ZM145.541 68.4596L91.6112 98.7953L72.6427 88.1255L126.573 57.7898L145.541 68.4596Z" fill="white"/>
</svg>
