<svg xmlns="http://www.w3.org/2000/svg" width="1134" height="220" viewBox="0 0 1134 220" fill="none">
    <path fill-rule="evenodd" clip-rule="evenodd"
        d="M187.5 58L94 6L0.5 58V162L94 214L187.5 162V58ZM97.4716 24.1363C95.0744 22.7879 92.1473 22.7879 89.75 24.1363L19.5279 63.6363C17.0482 65.0311 15.5137 67.6549 15.5137 70.5V149.5C15.5137 152.345 17.0482 154.969 19.5279 156.364L89.75 195.864C89.8168 195.901 89.8839 195.938 89.9515 195.973C90.9309 196.487 91.9919 196.781 93.0647 196.856C93.2465 196.869 93.4287 196.875 93.6108 196.875L93.6143 196.875C95.0946 196.875 96.4795 196.467 97.6624 195.756L167.694 156.364C170.173 154.969 171.708 152.345 171.708 149.5V70.7707C171.757 69.3739 171.435 67.9465 170.7 66.6392C169.93 65.2701 168.812 64.2202 167.519 63.5378L132.745 43.9775C132.643 43.9173 132.54 43.8594 132.436 43.804L97.4716 24.1363ZM155.958 144.894L101.489 175.533V114.606L155.958 83.967V144.894ZM147.772 70.501L93.6126 100.966L74.5635 90.2505L128.723 59.7858L147.772 70.501ZM54.6379 97.1134C54.6168 97.1015 54.5956 97.0895 54.5746 97.0774L31.2637 83.965V144.894L85.7393 175.537V114.608L54.6929 97.144C54.6746 97.1339 54.6562 97.1237 54.6379 97.1134ZM112.66 50.7505L58.5006 81.2151L39.4515 70.5L93.6108 40.0354L112.66 50.7505Z"
        fill="white" />
    <path
        d="M232.988 176V52.8H288.428C296.289 52.8 303.388 54.5013 309.724 57.904C316.177 61.3067 321.223 66 324.86 71.984C328.497 77.8507 330.316 84.5387 330.316 92.048C330.316 99.792 328.497 106.773 324.86 112.992C321.223 119.093 316.236 123.904 309.9 127.424C303.564 130.944 296.407 132.704 288.428 132.704H261.5V176H232.988ZM301.276 176L269.948 120.384L300.572 115.984L335.42 176H301.276ZM261.5 109.824H285.788C288.839 109.824 291.479 109.179 293.708 107.888C296.055 106.48 297.815 104.544 298.988 102.08C300.279 99.616 300.924 96.8 300.924 93.632C300.924 90.464 300.22 87.7067 298.812 85.36C297.404 82.896 295.351 81.0187 292.652 79.728C290.071 78.4373 286.903 77.792 283.148 77.792H261.5V109.824ZM394.665 177.76C384.339 177.76 375.363 175.707 367.737 171.6C360.11 167.376 354.185 161.685 349.961 154.528C345.737 147.253 343.625 138.981 343.625 129.712C343.625 122.555 344.798 115.984 347.145 110C349.491 104.016 352.777 98.8533 357.001 94.512C361.225 90.0533 366.211 86.6507 371.961 84.304C377.827 81.84 384.222 80.608 391.145 80.608C397.715 80.608 403.699 81.7813 409.097 84.128C414.611 86.4747 419.363 89.76 423.353 93.984C427.342 98.208 430.393 103.195 432.505 108.944C434.617 114.693 435.555 120.971 435.321 127.776L435.145 135.344H360.697L356.649 119.504H412.265L409.273 122.848V119.328C409.038 116.395 408.099 113.813 406.457 111.584C404.931 109.237 402.878 107.419 400.297 106.128C397.715 104.837 394.782 104.192 391.497 104.192C386.921 104.192 382.99 105.131 379.705 107.008C376.537 108.768 374.131 111.408 372.489 114.928C370.846 118.331 370.025 122.555 370.025 127.6C370.025 132.763 371.081 137.28 373.193 141.152C375.422 144.907 378.59 147.84 382.697 149.952C386.921 152.064 391.907 153.12 397.657 153.12C401.646 153.12 405.166 152.533 408.217 151.36C411.385 150.187 414.787 148.192 418.425 145.376L431.625 164.032C427.987 167.2 424.115 169.781 420.009 171.776C415.902 173.771 411.678 175.237 407.337 176.176C403.113 177.232 398.889 177.76 394.665 177.76ZM478.078 139.92L470.334 114.752L531.406 52.8H566.782L478.078 139.92ZM456.254 176V52.8H486.174V176H456.254ZM535.278 176L489.518 115.808L509.758 98.384L570.126 176H535.278ZM581.996 176V82.544H608.748L609.98 112.992L604.7 107.184C606.108 102.139 608.396 97.6213 611.564 93.632C614.849 89.6427 618.663 86.4747 623.004 84.128C627.345 81.7813 631.98 80.608 636.908 80.608C639.02 80.608 640.956 80.784 642.716 81.136C644.593 81.488 646.295 81.8987 647.82 82.368L640.076 113.52C638.785 112.699 637.025 112.053 634.796 111.584C632.684 110.997 630.455 110.704 628.108 110.704C625.527 110.704 623.121 111.173 620.892 112.112C618.663 112.933 616.785 114.165 615.26 115.808C613.735 117.451 612.503 119.387 611.564 121.616C610.743 123.845 610.332 126.368 610.332 129.184V176H581.996ZM692.633 177.584C684.771 177.584 677.731 175.531 671.513 171.424C665.411 167.2 660.542 161.451 656.905 154.176C653.267 146.784 651.449 138.453 651.449 129.184C651.449 119.68 653.267 111.291 656.905 104.016C660.542 96.7413 665.529 91.0507 671.865 86.944C678.201 82.72 685.417 80.608 693.513 80.608C697.971 80.608 702.019 81.2533 705.657 82.544C709.411 83.8347 712.697 85.6533 715.513 88C718.329 90.2293 720.734 92.8693 722.729 95.92C724.723 98.8533 726.19 102.021 727.129 105.424L721.321 104.72V82.544H749.305V176H720.793V153.472L727.129 153.296C726.19 156.581 724.665 159.691 722.553 162.624C720.441 165.557 717.859 168.139 714.809 170.368C711.758 172.597 708.355 174.357 704.601 175.648C700.846 176.939 696.857 177.584 692.633 177.584ZM700.377 153.824C704.718 153.824 708.473 152.827 711.641 150.832C714.809 148.837 717.273 146.021 719.033 142.384C720.793 138.629 721.673 134.229 721.673 129.184C721.673 124.139 720.793 119.797 719.033 116.16C717.273 112.405 714.809 109.531 711.641 107.536C708.473 105.424 704.718 104.368 700.377 104.368C696.153 104.368 692.457 105.424 689.289 107.536C686.238 109.531 683.833 112.405 682.073 116.16C680.313 119.797 679.433 124.139 679.433 129.184C679.433 134.229 680.313 138.629 682.073 142.384C683.833 146.021 686.238 148.837 689.289 150.832C692.457 152.827 696.153 153.824 700.377 153.824ZM830.296 177.936C826.072 177.936 822.024 177.349 818.152 176.176C814.28 175.003 810.76 173.419 807.592 171.424C804.542 169.429 801.96 167.141 799.848 164.56C797.854 161.861 796.504 159.104 795.8 156.288L801.96 154.176L800.376 175.824H774.152V45.76H802.488V104.896L796.68 102.784C797.384 99.7333 798.734 96.9173 800.728 94.336C802.723 91.6373 805.246 89.2907 808.296 87.296C811.347 85.184 814.691 83.5413 818.328 82.368C821.966 81.1947 825.72 80.608 829.592 80.608C837.688 80.608 844.846 82.72 851.064 86.944C857.4 91.0507 862.387 96.8 866.024 104.192C869.662 111.467 871.48 119.797 871.48 129.184C871.48 138.688 869.662 147.136 866.024 154.528C862.504 161.803 857.635 167.552 851.416 171.776C845.198 175.883 838.158 177.936 830.296 177.936ZM822.904 154.176C827.128 154.176 830.824 153.12 833.992 151.008C837.16 148.896 839.566 146.021 841.208 142.384C842.968 138.629 843.848 134.229 843.848 129.184C843.848 124.256 842.968 119.915 841.208 116.16C839.566 112.405 837.16 109.531 833.992 107.536C830.824 105.541 827.128 104.544 822.904 104.544C818.563 104.544 814.808 105.541 811.64 107.536C808.472 109.531 806.008 112.405 804.248 116.16C802.488 119.915 801.608 124.256 801.608 129.184C801.608 134.229 802.488 138.629 804.248 142.384C806.008 146.021 808.472 148.896 811.64 151.008C814.808 153.12 818.563 154.176 822.904 154.176ZM891.58 176V82.544H919.74V176H891.58ZM905.66 64.064C900.38 64.064 896.215 62.832 893.164 60.368C890.231 57.7867 888.764 54.1493 888.764 49.456C888.764 45.232 890.289 41.7707 893.34 39.072C896.391 36.3733 900.497 35.024 905.66 35.024C910.94 35.024 915.047 36.3147 917.98 38.896C920.913 41.36 922.38 44.88 922.38 49.456C922.38 53.7973 920.855 57.3173 917.804 60.016C914.871 62.7147 910.823 64.064 905.66 64.064ZM987.207 177.76C978.172 177.76 970.076 175.648 962.919 171.424C955.762 167.2 950.071 161.451 945.847 154.176C941.74 146.784 939.687 138.453 939.687 129.184C939.687 119.915 941.74 111.643 945.847 104.368C950.071 96.976 955.762 91.168 962.919 86.944C970.076 82.72 978.172 80.608 987.207 80.608C995.538 80.608 1003.16 82.0747 1010.09 85.008C1017.13 87.9413 1022.7 92.048 1026.81 97.328L1011.5 115.632C1009.85 113.755 1007.92 111.995 1005.69 110.352C1003.46 108.709 1000.99 107.419 998.295 106.48C995.596 105.541 992.78 105.072 989.847 105.072C985.388 105.072 981.458 106.128 978.055 108.24C974.652 110.235 972.012 113.051 970.135 116.688C968.258 120.325 967.319 124.491 967.319 129.184C967.319 133.643 968.258 137.691 970.135 141.328C972.13 144.965 974.828 147.84 978.231 149.952C981.634 152.064 985.506 153.12 989.847 153.12C992.898 153.12 995.714 152.768 998.295 152.064C1000.88 151.243 1003.22 150.069 1005.34 148.544C1007.56 147.019 1009.62 145.141 1011.5 142.912L1026.63 161.392C1022.64 166.437 1017.07 170.427 1009.91 173.36C1002.87 176.293 995.303 177.76 987.207 177.76ZM1086.63 177.76C1076.31 177.76 1067.33 175.707 1059.71 171.6C1052.08 167.376 1046.15 161.685 1041.93 154.528C1037.71 147.253 1035.59 138.981 1035.59 129.712C1035.59 122.555 1036.77 115.984 1039.11 110C1041.46 104.016 1044.75 98.8533 1048.97 94.512C1053.19 90.0533 1058.18 86.6507 1063.93 84.304C1069.8 81.84 1076.19 80.608 1083.11 80.608C1089.68 80.608 1095.67 81.7813 1101.07 84.128C1106.58 86.4747 1111.33 89.76 1115.32 93.984C1119.31 98.208 1122.36 103.195 1124.47 108.944C1126.59 114.693 1127.52 120.971 1127.29 127.776L1127.11 135.344H1052.67L1048.62 119.504H1104.23L1101.24 122.848V119.328C1101.01 116.395 1100.07 113.813 1098.43 111.584C1096.9 109.237 1094.85 107.419 1092.27 106.128C1089.68 104.837 1086.75 104.192 1083.47 104.192C1078.89 104.192 1074.96 105.131 1071.67 107.008C1068.51 108.768 1066.1 111.408 1064.46 114.928C1062.81 118.331 1061.99 122.555 1061.99 127.6C1061.99 132.763 1063.05 137.28 1065.16 141.152C1067.39 144.907 1070.56 147.84 1074.67 149.952C1078.89 152.064 1083.88 153.12 1089.63 153.12C1093.61 153.12 1097.13 152.533 1100.19 151.36C1103.35 150.187 1106.76 148.192 1110.39 145.376L1123.59 164.032C1119.96 167.2 1116.08 169.781 1111.98 171.776C1107.87 173.771 1103.65 175.237 1099.31 176.176C1095.08 177.232 1090.86 177.76 1086.63 177.76Z"
        fill="white" />
</svg>