<svg xmlns="http://www.w3.org/2000/svg" width="79" height="48" viewBox="0 0 79 48" fill="none">
    <g clip-path="url(#clip0_9634_5319)">
        <path d="M43.8174 4L34.3555 8.57946V44H43.8174V4Z" fill="#EF4028" />
        <path
            d="M46.742 37.988C50.4224 42.4973 55.8561 44.0003 62.5178 44.0003C72.1005 44.0003 78.9964 38.6237 78.9964 30.2971C78.9964 21.9705 73.7366 17.2892 63.9197 17.2892C61.407 17.2892 59.3023 17.5772 57.3751 18.3287L57.6662 12.2567H75.5467V4.68164H50.1278L49.1341 25.2084L54.4507 25.96C56.2039 24.8607 58.6599 24.053 61.4034 24.053C66.7803 24.053 69.4102 26.0758 69.4102 30.2971C69.4102 34.2304 66.7235 36.3691 61.5205 36.3691C57.4887 36.3691 54.2164 35.2699 51.8775 32.8994L46.7349 37.988H46.742Z"
            fill="#EF4028" />
        <path
            d="M30.3876 31.9769V28.3913C30.3876 20.4124 25.8873 13.9365 15.5452 13.9365C5.20302 13.9365 0 20.3527 0 29.3746C0 38.3966 5.95898 44.0015 16.3047 44.0015C22.324 44.0015 26.5297 42.4984 29.511 39.7802L25.4792 34.3439C23.3745 36.0788 20.6311 36.8865 17.0074 36.8865C11.8079 36.8865 9.41228 35.3834 8.76989 31.9734H30.3912L30.3876 31.9769ZM8.70601 25.8452C8.70601 22.7232 11.2756 20.5845 15.4848 20.5845C19.6941 20.5845 21.9691 22.2596 21.9691 25.8452H8.70601Z"
            fill="#EF4028" />
    </g>
    <defs>
        <clipPath id="clip0_9634_5319">
            <rect width="79" height="40" fill="white" transform="translate(0 4)" />
        </clipPath>
    </defs>
    <div xmlns="" id="divScriptsUsed" style="display: none" />
    <script xmlns="" id="globalVarsDetection" src="chrome-extension://cmkdbmfndkfgebldhnkbfhlneefdaaip/js/wrs_env.js" />
    <script xmlns="" />
</svg>