<svg xmlns="http://www.w3.org/2000/svg" width="1334" height="420" viewBox="0 0 1334 420" fill="none">
    <rect x="0.5" width="1333" height="420" rx="8" fill="#008A19" />
    <path fill-rule="evenodd" clip-rule="evenodd"
        d="M287.5 158L194 106L100.5 158V262L194 314L287.5 262V158ZM197.472 124.136C195.074 122.788 192.147 122.788 189.75 124.136L119.528 163.636C117.048 165.031 115.514 167.655 115.514 170.5V249.5C115.514 252.345 117.048 254.969 119.528 256.364L189.75 295.864C189.817 295.901 189.884 295.938 189.951 295.973C190.931 296.487 191.992 296.781 193.065 296.856C193.247 296.869 193.429 296.875 193.611 296.875L193.614 296.875C195.095 296.875 196.479 296.467 197.662 295.756L267.694 256.364C270.173 254.969 271.708 252.345 271.708 249.5V170.771C271.757 169.374 271.435 167.946 270.7 166.639C269.93 165.27 268.812 164.22 267.519 163.538L232.745 143.977C232.643 143.917 232.54 143.859 232.436 143.804L197.472 124.136ZM255.958 244.894L201.489 275.533V214.606L255.958 183.967V244.894ZM247.772 170.501L193.613 200.966L174.563 190.25L228.723 159.786L247.772 170.501ZM154.638 197.113C154.617 197.102 154.596 197.09 154.575 197.077L131.264 183.965V244.894L185.739 275.537V214.608L154.693 197.144C154.675 197.134 154.656 197.124 154.638 197.113ZM212.66 150.75L158.501 181.215L139.452 170.5L193.611 140.035L212.66 150.75Z"
        fill="white" />
    <path
        d="M332.988 276V152.8H388.428C396.289 152.8 403.388 154.501 409.724 157.904C416.177 161.307 421.223 166 424.86 171.984C428.497 177.851 430.316 184.539 430.316 192.048C430.316 199.792 428.497 206.773 424.86 212.992C421.223 219.093 416.236 223.904 409.9 227.424C403.564 230.944 396.407 232.704 388.428 232.704H361.5V276H332.988ZM401.276 276L369.948 220.384L400.572 215.984L435.42 276H401.276ZM361.5 209.824H385.788C388.839 209.824 391.479 209.179 393.708 207.888C396.055 206.48 397.815 204.544 398.988 202.08C400.279 199.616 400.924 196.8 400.924 193.632C400.924 190.464 400.22 187.707 398.812 185.36C397.404 182.896 395.351 181.019 392.652 179.728C390.071 178.437 386.903 177.792 383.148 177.792H361.5V209.824ZM494.665 277.76C484.339 277.76 475.363 275.707 467.737 271.6C460.11 267.376 454.185 261.685 449.961 254.528C445.737 247.253 443.625 238.981 443.625 229.712C443.625 222.555 444.798 215.984 447.145 210C449.491 204.016 452.777 198.853 457.001 194.512C461.225 190.053 466.211 186.651 471.961 184.304C477.827 181.84 484.222 180.608 491.145 180.608C497.715 180.608 503.699 181.781 509.097 184.128C514.611 186.475 519.363 189.76 523.353 193.984C527.342 198.208 530.393 203.195 532.505 208.944C534.617 214.693 535.555 220.971 535.321 227.776L535.145 235.344H460.697L456.649 219.504H512.265L509.273 222.848V219.328C509.038 216.395 508.099 213.813 506.457 211.584C504.931 209.237 502.878 207.419 500.297 206.128C497.715 204.837 494.782 204.192 491.497 204.192C486.921 204.192 482.99 205.131 479.705 207.008C476.537 208.768 474.131 211.408 472.489 214.928C470.846 218.331 470.025 222.555 470.025 227.6C470.025 232.763 471.081 237.28 473.193 241.152C475.422 244.907 478.59 247.84 482.697 249.952C486.921 252.064 491.907 253.12 497.657 253.12C501.646 253.12 505.166 252.533 508.217 251.36C511.385 250.187 514.787 248.192 518.425 245.376L531.625 264.032C527.987 267.2 524.115 269.781 520.009 271.776C515.902 273.771 511.678 275.237 507.337 276.176C503.113 277.232 498.889 277.76 494.665 277.76ZM578.078 239.92L570.334 214.752L631.406 152.8H666.782L578.078 239.92ZM556.254 276V152.8H586.174V276H556.254ZM635.278 276L589.518 215.808L609.758 198.384L670.126 276H635.278ZM681.996 276V182.544H708.748L709.98 212.992L704.7 207.184C706.108 202.139 708.396 197.621 711.564 193.632C714.849 189.643 718.663 186.475 723.004 184.128C727.345 181.781 731.98 180.608 736.908 180.608C739.02 180.608 740.956 180.784 742.716 181.136C744.593 181.488 746.295 181.899 747.82 182.368L740.076 213.52C738.785 212.699 737.025 212.053 734.796 211.584C732.684 210.997 730.455 210.704 728.108 210.704C725.527 210.704 723.121 211.173 720.892 212.112C718.663 212.933 716.785 214.165 715.26 215.808C713.735 217.451 712.503 219.387 711.564 221.616C710.743 223.845 710.332 226.368 710.332 229.184V276H681.996ZM792.633 277.584C784.771 277.584 777.731 275.531 771.513 271.424C765.411 267.2 760.542 261.451 756.905 254.176C753.267 246.784 751.449 238.453 751.449 229.184C751.449 219.68 753.267 211.291 756.905 204.016C760.542 196.741 765.529 191.051 771.865 186.944C778.201 182.72 785.417 180.608 793.513 180.608C797.971 180.608 802.019 181.253 805.657 182.544C809.411 183.835 812.697 185.653 815.513 188C818.329 190.229 820.734 192.869 822.729 195.92C824.723 198.853 826.19 202.021 827.129 205.424L821.321 204.72V182.544H849.305V276H820.793V253.472L827.129 253.296C826.19 256.581 824.665 259.691 822.553 262.624C820.441 265.557 817.859 268.139 814.809 270.368C811.758 272.597 808.355 274.357 804.601 275.648C800.846 276.939 796.857 277.584 792.633 277.584ZM800.377 253.824C804.718 253.824 808.473 252.827 811.641 250.832C814.809 248.837 817.273 246.021 819.033 242.384C820.793 238.629 821.673 234.229 821.673 229.184C821.673 224.139 820.793 219.797 819.033 216.16C817.273 212.405 814.809 209.531 811.641 207.536C808.473 205.424 804.718 204.368 800.377 204.368C796.153 204.368 792.457 205.424 789.289 207.536C786.238 209.531 783.833 212.405 782.073 216.16C780.313 219.797 779.433 224.139 779.433 229.184C779.433 234.229 780.313 238.629 782.073 242.384C783.833 246.021 786.238 248.837 789.289 250.832C792.457 252.827 796.153 253.824 800.377 253.824ZM930.296 277.936C926.072 277.936 922.024 277.349 918.152 276.176C914.28 275.003 910.76 273.419 907.592 271.424C904.542 269.429 901.96 267.141 899.848 264.56C897.854 261.861 896.504 259.104 895.8 256.288L901.96 254.176L900.376 275.824H874.152V145.76H902.488V204.896L896.68 202.784C897.384 199.733 898.734 196.917 900.728 194.336C902.723 191.637 905.246 189.291 908.296 187.296C911.347 185.184 914.691 183.541 918.328 182.368C921.966 181.195 925.72 180.608 929.592 180.608C937.688 180.608 944.846 182.72 951.064 186.944C957.4 191.051 962.387 196.8 966.024 204.192C969.662 211.467 971.48 219.797 971.48 229.184C971.48 238.688 969.662 247.136 966.024 254.528C962.504 261.803 957.635 267.552 951.416 271.776C945.198 275.883 938.158 277.936 930.296 277.936ZM922.904 254.176C927.128 254.176 930.824 253.12 933.992 251.008C937.16 248.896 939.566 246.021 941.208 242.384C942.968 238.629 943.848 234.229 943.848 229.184C943.848 224.256 942.968 219.915 941.208 216.16C939.566 212.405 937.16 209.531 933.992 207.536C930.824 205.541 927.128 204.544 922.904 204.544C918.563 204.544 914.808 205.541 911.64 207.536C908.472 209.531 906.008 212.405 904.248 216.16C902.488 219.915 901.608 224.256 901.608 229.184C901.608 234.229 902.488 238.629 904.248 242.384C906.008 246.021 908.472 248.896 911.64 251.008C914.808 253.12 918.563 254.176 922.904 254.176ZM991.58 276V182.544H1019.74V276H991.58ZM1005.66 164.064C1000.38 164.064 996.215 162.832 993.164 160.368C990.231 157.787 988.764 154.149 988.764 149.456C988.764 145.232 990.289 141.771 993.34 139.072C996.391 136.373 1000.5 135.024 1005.66 135.024C1010.94 135.024 1015.05 136.315 1017.98 138.896C1020.91 141.36 1022.38 144.88 1022.38 149.456C1022.38 153.797 1020.85 157.317 1017.8 160.016C1014.87 162.715 1010.82 164.064 1005.66 164.064ZM1087.21 277.76C1078.17 277.76 1070.08 275.648 1062.92 271.424C1055.76 267.2 1050.07 261.451 1045.85 254.176C1041.74 246.784 1039.69 238.453 1039.69 229.184C1039.69 219.915 1041.74 211.643 1045.85 204.368C1050.07 196.976 1055.76 191.168 1062.92 186.944C1070.08 182.72 1078.17 180.608 1087.21 180.608C1095.54 180.608 1103.16 182.075 1110.09 185.008C1117.13 187.941 1122.7 192.048 1126.81 197.328L1111.5 215.632C1109.85 213.755 1107.92 211.995 1105.69 210.352C1103.46 208.709 1100.99 207.419 1098.3 206.48C1095.6 205.541 1092.78 205.072 1089.85 205.072C1085.39 205.072 1081.46 206.128 1078.06 208.24C1074.65 210.235 1072.01 213.051 1070.14 216.688C1068.26 220.325 1067.32 224.491 1067.32 229.184C1067.32 233.643 1068.26 237.691 1070.14 241.328C1072.13 244.965 1074.83 247.84 1078.23 249.952C1081.63 252.064 1085.51 253.12 1089.85 253.12C1092.9 253.12 1095.71 252.768 1098.3 252.064C1100.88 251.243 1103.22 250.069 1105.34 248.544C1107.56 247.019 1109.62 245.141 1111.5 242.912L1126.63 261.392C1122.64 266.437 1117.07 270.427 1109.91 273.36C1102.87 276.293 1095.3 277.76 1087.21 277.76ZM1186.63 277.76C1176.31 277.76 1167.33 275.707 1159.71 271.6C1152.08 267.376 1146.15 261.685 1141.93 254.528C1137.71 247.253 1135.59 238.981 1135.59 229.712C1135.59 222.555 1136.77 215.984 1139.11 210C1141.46 204.016 1144.75 198.853 1148.97 194.512C1153.19 190.053 1158.18 186.651 1163.93 184.304C1169.8 181.84 1176.19 180.608 1183.11 180.608C1189.68 180.608 1195.67 181.781 1201.07 184.128C1206.58 186.475 1211.33 189.76 1215.32 193.984C1219.31 198.208 1222.36 203.195 1224.47 208.944C1226.59 214.693 1227.52 220.971 1227.29 227.776L1227.11 235.344H1152.67L1148.62 219.504H1204.23L1201.24 222.848V219.328C1201.01 216.395 1200.07 213.813 1198.43 211.584C1196.9 209.237 1194.85 207.419 1192.27 206.128C1189.68 204.837 1186.75 204.192 1183.47 204.192C1178.89 204.192 1174.96 205.131 1171.67 207.008C1168.51 208.768 1166.1 211.408 1164.46 214.928C1162.81 218.331 1161.99 222.555 1161.99 227.6C1161.99 232.763 1163.05 237.28 1165.16 241.152C1167.39 244.907 1170.56 247.84 1174.67 249.952C1178.89 252.064 1183.88 253.12 1189.63 253.12C1193.61 253.12 1197.13 252.533 1200.19 251.36C1203.35 250.187 1206.76 248.192 1210.39 245.376L1223.59 264.032C1219.96 267.2 1216.08 269.781 1211.98 271.776C1207.87 273.771 1203.65 275.237 1199.31 276.176C1195.08 277.232 1190.86 277.76 1186.63 277.76Z"
        fill="white" />
</svg>