<svg width="986" height="300" viewBox="0 0 986 300" fill="none" xmlns="http://www.w3.org/2000/svg">
    <path
        d="M381.125 108.625C389.417 108.625 396.25 109.625 401.625 111.625C407.042 113.625 411.062 116.646 413.688 120.688C416.312 124.729 417.625 129.833 417.625 136C417.625 140.167 416.833 143.812 415.25 146.938C413.667 150.062 411.583 152.708 409 154.875C406.417 157.042 403.625 158.812 400.625 160.188L427.5 200H406L384.188 164.938H373.875V200H354.5V108.625H381.125ZM379.75 124.5H373.875V149.188H380.125C386.542 149.188 391.125 148.125 393.875 146C396.667 143.833 398.062 140.667 398.062 136.5C398.062 132.167 396.562 129.083 393.562 127.25C390.604 125.417 386 124.5 379.75 124.5ZM466.312 128.812C472.771 128.812 478.333 130.062 483 132.562C487.667 135.021 491.271 138.604 493.812 143.312C496.354 148.021 497.625 153.771 497.625 160.562V169.812H452.562C452.771 175.188 454.375 179.417 457.375 182.5C460.417 185.542 464.625 187.062 470 187.062C474.458 187.062 478.542 186.604 482.25 185.688C485.958 184.771 489.771 183.396 493.688 181.562V196.312C490.229 198.021 486.604 199.271 482.812 200.062C479.062 200.854 474.5 201.25 469.125 201.25C462.125 201.25 455.917 199.958 450.5 197.375C445.125 194.792 440.896 190.854 437.812 185.562C434.771 180.271 433.25 173.604 433.25 165.562C433.25 157.396 434.625 150.604 437.375 145.188C440.167 139.729 444.042 135.646 449 132.938C453.958 130.188 459.729 128.812 466.312 128.812ZM466.438 142.375C462.729 142.375 459.646 143.562 457.188 145.938C454.771 148.312 453.375 152.042 453 157.125H479.75C479.708 154.292 479.188 151.771 478.188 149.562C477.229 147.354 475.771 145.604 473.812 144.312C471.896 143.021 469.438 142.375 466.438 142.375ZM588.125 200H566.125L542.188 161.5L534 167.375V200H514.625V108.625H534V150.438C535.292 148.646 536.562 146.854 537.812 145.062C539.062 143.271 540.333 141.479 541.625 139.688L566.375 108.625H587.875L556 149.062L588.125 200ZM637.125 128.812C638.083 128.812 639.188 128.875 640.438 129C641.729 129.083 642.771 129.208 643.562 129.375L642.125 147.25C641.5 147.042 640.604 146.896 639.438 146.812C638.312 146.688 637.333 146.625 636.5 146.625C634.042 146.625 631.646 146.938 629.312 147.562C627.021 148.188 624.958 149.208 623.125 150.625C621.292 152 619.833 153.833 618.75 156.125C617.708 158.375 617.188 161.146 617.188 164.438V200H598.125V130.125H612.562L615.375 141.875H616.312C617.688 139.5 619.396 137.333 621.438 135.375C623.521 133.375 625.875 131.792 628.5 130.625C631.167 129.417 634.042 128.812 637.125 128.812ZM684.875 128.688C694.25 128.688 701.438 130.729 706.438 134.812C711.438 138.896 713.938 145.104 713.938 153.438V200H700.625L696.938 190.5H696.438C694.438 193 692.396 195.042 690.312 196.625C688.229 198.208 685.833 199.375 683.125 200.125C680.417 200.875 677.125 201.25 673.25 201.25C669.125 201.25 665.417 200.458 662.125 198.875C658.875 197.292 656.312 194.875 654.438 191.625C652.562 188.333 651.625 184.167 651.625 179.125C651.625 171.708 654.229 166.25 659.438 162.75C664.646 159.208 672.458 157.25 682.875 156.875L695 156.5V153.438C695 149.771 694.042 147.083 692.125 145.375C690.208 143.667 687.542 142.812 684.125 142.812C680.75 142.812 677.438 143.292 674.188 144.25C670.938 145.208 667.688 146.417 664.438 147.875L658.125 135C661.833 133.042 665.979 131.5 670.562 130.375C675.188 129.25 679.958 128.688 684.875 128.688ZM695 167.625L687.625 167.875C681.458 168.042 677.167 169.146 674.75 171.188C672.375 173.229 671.188 175.917 671.188 179.25C671.188 182.167 672.042 184.25 673.75 185.5C675.458 186.708 677.688 187.312 680.438 187.312C684.521 187.312 687.958 186.104 690.75 183.688C693.583 181.271 695 177.833 695 173.375V167.625ZM752.688 102.75V125.375C752.688 128 752.604 130.604 752.438 133.188C752.312 135.771 752.146 137.771 751.938 139.188H752.688C754.521 136.312 757.021 133.875 760.188 131.875C763.354 129.833 767.458 128.812 772.5 128.812C780.333 128.812 786.688 131.875 791.562 138C796.438 144.125 798.875 153.104 798.875 164.938C798.875 172.896 797.75 179.583 795.5 185C793.25 190.375 790.104 194.438 786.062 197.188C782.021 199.896 777.333 201.25 772 201.25C766.875 201.25 762.833 200.333 759.875 198.5C756.917 196.667 754.521 194.604 752.688 192.312H751.375L748.188 200H733.625V102.75H752.688ZM766.375 144.062C763.042 144.062 760.396 144.75 758.438 146.125C756.479 147.5 755.042 149.562 754.125 152.312C753.25 155.062 752.771 158.542 752.688 162.75V164.812C752.688 171.604 753.688 176.812 755.688 180.438C757.688 184.021 761.333 185.812 766.625 185.812C770.542 185.812 773.646 184 775.938 180.375C778.271 176.75 779.438 171.521 779.438 164.688C779.438 157.854 778.271 152.708 775.938 149.25C773.604 145.792 770.417 144.062 766.375 144.062ZM833.688 130.125V200H814.625V130.125H833.688ZM824.188 102.75C827.021 102.75 829.458 103.417 831.5 104.75C833.542 106.042 834.562 108.479 834.562 112.062C834.562 115.604 833.542 118.062 831.5 119.438C829.458 120.771 827.021 121.438 824.188 121.438C821.312 121.438 818.854 120.771 816.812 119.438C814.812 118.062 813.812 115.604 813.812 112.062C813.812 108.479 814.812 106.042 816.812 104.75C818.854 103.417 821.312 102.75 824.188 102.75ZM882.125 201.25C875.208 201.25 869.312 200 864.438 197.5C859.562 194.958 855.854 191.042 853.312 185.75C850.771 180.458 849.5 173.688 849.5 165.438C849.5 156.896 850.938 149.938 853.812 144.562C856.729 139.146 860.75 135.167 865.875 132.625C871.042 130.083 877.021 128.812 883.812 128.812C888.646 128.812 892.812 129.292 896.312 130.25C899.854 131.167 902.938 132.271 905.562 133.562L899.938 148.312C896.938 147.104 894.146 146.125 891.562 145.375C888.979 144.583 886.396 144.188 883.812 144.188C880.479 144.188 877.708 144.979 875.5 146.562C873.292 148.104 871.646 150.438 870.562 153.562C869.479 156.688 868.938 160.604 868.938 165.312C868.938 169.938 869.521 173.771 870.688 176.812C871.854 179.854 873.542 182.125 875.75 183.625C877.958 185.083 880.646 185.812 883.812 185.812C887.771 185.812 891.292 185.292 894.375 184.25C897.458 183.167 900.458 181.667 903.375 179.75V196.062C900.458 197.896 897.396 199.208 894.188 200C891.021 200.833 887 201.25 882.125 201.25ZM948.438 128.812C954.896 128.812 960.458 130.062 965.125 132.562C969.792 135.021 973.396 138.604 975.938 143.312C978.479 148.021 979.75 153.771 979.75 160.562V169.812H934.688C934.896 175.188 936.5 179.417 939.5 182.5C942.542 185.542 946.75 187.062 952.125 187.062C956.583 187.062 960.667 186.604 964.375 185.688C968.083 184.771 971.896 183.396 975.812 181.562V196.312C972.354 198.021 968.729 199.271 964.938 200.062C961.188 200.854 956.625 201.25 951.25 201.25C944.25 201.25 938.042 199.958 932.625 197.375C927.25 194.792 923.021 190.854 919.938 185.562C916.896 180.271 915.375 173.604 915.375 165.562C915.375 157.396 916.75 150.604 919.5 145.188C922.292 139.729 926.167 135.646 931.125 132.938C936.083 130.188 941.854 128.812 948.438 128.812ZM948.562 142.375C944.854 142.375 941.771 143.562 939.312 145.938C936.896 148.312 935.5 152.042 935.125 157.125H961.875C961.833 154.292 961.312 151.771 960.312 149.562C959.354 147.354 957.896 145.604 955.938 144.312C954.021 143.021 951.562 142.375 948.562 142.375Z"
        fill="#168523" />
    <rect width="300" height="300" rx="150" fill="#168523" />
    <path d="M150 62.1094L228.125 106.055V193.945L150 237.891L71.875 193.945V106.055L150 62.1094Z" stroke="#F4F7F8"
        stroke-width="18" stroke-linecap="round" stroke-linejoin="round" />
    <path d="M150 150L228.125 106.055" stroke="#F4F7F8" stroke-width="18" stroke-linecap="round"
        stroke-linejoin="round" />
    <path d="M150 150V237.891" stroke="#F4F7F8" stroke-width="18" stroke-linecap="round" stroke-linejoin="round" />
    <path d="M150 150L71.875 106.055" stroke="#F4F7F8" stroke-width="18" stroke-linecap="round"
        stroke-linejoin="round" />
    <path d="M189.063 84.082L110.938 128.027" stroke="#F4F7F8" stroke-width="18" stroke-linecap="round"
        stroke-linejoin="round" />
</svg>