<svg xmlns="http://www.w3.org/2000/svg" width="879" height="212" viewBox="0 0 879 212" fill="none">
    <path
        d="M224.264 150V60.4H264.584C270.301 60.4 275.464 61.6373 280.072 64.112C284.765 66.5867 288.435 70 291.08 74.352C293.725 78.6187 295.048 83.4827 295.048 88.944C295.048 94.576 293.725 99.6533 291.08 104.176C288.435 108.613 284.808 112.112 280.2 114.672C275.592 117.232 270.387 118.512 264.584 118.512H245V150H224.264ZM273.928 150L251.144 109.552L273.416 106.352L298.76 150H273.928ZM245 101.872H262.664C264.883 101.872 266.803 101.403 268.424 100.464C270.131 99.44 271.411 98.032 272.264 96.24C273.203 94.448 273.672 92.4 273.672 90.096C273.672 87.792 273.16 85.7867 272.136 84.08C271.112 82.288 269.619 80.9227 267.656 79.984C265.779 79.0453 263.475 78.576 260.744 78.576H245V101.872ZM341.847 151.28C334.338 151.28 327.81 149.787 322.263 146.8C316.716 143.728 312.407 139.589 309.335 134.384C306.263 129.093 304.727 123.077 304.727 116.336C304.727 111.131 305.58 106.352 307.287 102C308.994 97.648 311.383 93.8933 314.455 90.736C317.527 87.4933 321.154 85.0187 325.335 83.312C329.602 81.52 334.252 80.624 339.287 80.624C344.066 80.624 348.418 81.4773 352.343 83.184C356.354 84.8907 359.81 87.28 362.711 90.352C365.612 93.424 367.831 97.0507 369.367 101.232C370.903 105.413 371.586 109.979 371.415 114.928L371.287 120.432H317.143L314.199 108.912H354.647L352.471 111.344V108.784C352.3 106.651 351.618 104.773 350.423 103.152C349.314 101.445 347.82 100.123 345.943 99.184C344.066 98.2453 341.932 97.776 339.543 97.776C336.215 97.776 333.356 98.4587 330.967 99.824C328.663 101.104 326.914 103.024 325.719 105.584C324.524 108.059 323.927 111.131 323.927 114.8C323.927 118.555 324.695 121.84 326.231 124.656C327.852 127.387 330.156 129.52 333.143 131.056C336.215 132.592 339.842 133.36 344.023 133.36C346.924 133.36 349.484 132.933 351.703 132.08C354.007 131.227 356.482 129.776 359.127 127.728L368.727 141.296C366.082 143.6 363.266 145.477 360.279 146.928C357.292 148.379 354.22 149.445 351.063 150.128C347.991 150.896 344.919 151.28 341.847 151.28ZM402.511 123.76L396.879 105.456L441.295 60.4H467.023L402.511 123.76ZM386.639 150V60.4H408.399V150H386.639ZM444.111 150L410.831 106.224L425.551 93.552L469.455 150H444.111ZM478.088 150V82.032H497.544L498.44 104.176L494.6 99.952C495.624 96.2827 497.288 92.9973 499.592 90.096C501.981 87.1947 504.755 84.8907 507.912 83.184C511.069 81.4773 514.44 80.624 518.024 80.624C519.56 80.624 520.968 80.752 522.248 81.008C523.613 81.264 524.851 81.5627 525.96 81.904L520.328 104.56C519.389 103.963 518.109 103.493 516.488 103.152C514.952 102.725 513.331 102.512 511.624 102.512C509.747 102.512 507.997 102.853 506.376 103.536C504.755 104.133 503.389 105.029 502.28 106.224C501.171 107.419 500.275 108.827 499.592 110.448C498.995 112.069 498.696 113.904 498.696 115.952V150H478.088ZM558.551 151.152C552.834 151.152 547.714 149.659 543.191 146.672C538.754 143.6 535.212 139.419 532.567 134.128C529.922 128.752 528.599 122.693 528.599 115.952C528.599 109.04 529.922 102.939 532.567 97.648C535.212 92.3573 538.839 88.2187 543.447 85.232C548.055 82.16 553.303 80.624 559.191 80.624C562.434 80.624 565.378 81.0933 568.023 82.032C570.754 82.9707 573.143 84.2933 575.191 86C577.239 87.6213 578.988 89.5413 580.439 91.76C581.89 93.8933 582.956 96.1973 583.639 98.672L579.415 98.16V82.032H599.767V150H579.031V133.616L583.639 133.488C582.956 135.877 581.847 138.139 580.311 140.272C578.775 142.405 576.898 144.283 574.679 145.904C572.46 147.525 569.986 148.805 567.255 149.744C564.524 150.683 561.623 151.152 558.551 151.152ZM564.183 133.872C567.34 133.872 570.071 133.147 572.375 131.696C574.679 130.245 576.471 128.197 577.751 125.552C579.031 122.821 579.671 119.621 579.671 115.952C579.671 112.283 579.031 109.125 577.751 106.48C576.471 103.749 574.679 101.659 572.375 100.208C570.071 98.672 567.34 97.904 564.183 97.904C561.111 97.904 558.423 98.672 556.119 100.208C553.9 101.659 552.151 103.749 550.871 106.48C549.591 109.125 548.951 112.283 548.951 115.952C548.951 119.621 549.591 122.821 550.871 125.552C552.151 128.197 553.9 130.245 556.119 131.696C558.423 133.147 561.111 133.872 564.183 133.872ZM658.67 151.408C655.598 151.408 652.654 150.981 649.838 150.128C647.022 149.275 644.462 148.123 642.158 146.672C639.939 145.221 638.062 143.557 636.526 141.68C635.075 139.717 634.094 137.712 633.582 135.664L638.062 134.128L636.91 149.872H617.838V55.28H638.446V98.288L634.222 96.752C634.734 94.5333 635.715 92.4853 637.166 90.608C638.617 88.6453 640.451 86.9387 642.67 85.488C644.889 83.952 647.321 82.7573 649.966 81.904C652.611 81.0507 655.342 80.624 658.158 80.624C664.046 80.624 669.251 82.16 673.774 85.232C678.382 88.2187 682.009 92.4 684.654 97.776C687.299 103.067 688.622 109.125 688.622 115.952C688.622 122.864 687.299 129.008 684.654 134.384C682.094 139.675 678.553 143.856 674.03 146.928C669.507 149.915 664.387 151.408 658.67 151.408ZM653.294 134.128C656.366 134.128 659.054 133.36 661.358 131.824C663.662 130.288 665.411 128.197 666.606 125.552C667.886 122.821 668.526 119.621 668.526 115.952C668.526 112.368 667.886 109.211 666.606 106.48C665.411 103.749 663.662 101.659 661.358 100.208C659.054 98.7573 656.366 98.032 653.294 98.032C650.137 98.032 647.406 98.7573 645.102 100.208C642.798 101.659 641.006 103.749 639.726 106.48C638.446 109.211 637.806 112.368 637.806 115.952C637.806 119.621 638.446 122.821 639.726 125.552C641.006 128.197 642.798 130.288 645.102 131.824C647.406 133.36 650.137 134.128 653.294 134.128ZM703.24 150V82.032H723.72V150H703.24ZM713.48 68.592C709.64 68.592 706.611 67.696 704.392 65.904C702.259 64.0267 701.192 61.3813 701.192 57.968C701.192 54.896 702.301 52.3787 704.52 50.416C706.739 48.4533 709.725 47.472 713.48 47.472C717.32 47.472 720.307 48.4107 722.44 50.288C724.573 52.08 725.64 54.64 725.64 57.968C725.64 61.1253 724.531 63.6853 722.312 65.648C720.179 67.6107 717.235 68.592 713.48 68.592ZM772.787 151.28C766.216 151.28 760.328 149.744 755.123 146.672C749.918 143.6 745.779 139.419 742.707 134.128C739.72 128.752 738.227 122.693 738.227 115.952C738.227 109.211 739.72 103.195 742.707 97.904C745.779 92.528 749.918 88.304 755.123 85.232C760.328 82.16 766.216 80.624 772.787 80.624C778.846 80.624 784.392 81.6907 789.427 83.824C794.547 85.9573 798.6 88.944 801.587 92.784L790.451 106.096C789.256 104.731 787.848 103.451 786.227 102.256C784.606 101.061 782.814 100.123 780.851 99.44C778.888 98.7573 776.84 98.416 774.707 98.416C771.464 98.416 768.606 99.184 766.131 100.72C763.656 102.171 761.736 104.219 760.371 106.864C759.006 109.509 758.323 112.539 758.323 115.952C758.323 119.195 759.006 122.139 760.371 124.784C761.822 127.429 763.784 129.52 766.259 131.056C768.734 132.592 771.55 133.36 774.707 133.36C776.926 133.36 778.974 133.104 780.851 132.592C782.728 131.995 784.435 131.141 785.971 130.032C787.592 128.923 789.086 127.557 790.451 125.936L801.459 139.376C798.558 143.045 794.504 145.947 789.299 148.08C784.179 150.213 778.675 151.28 772.787 151.28ZM845.097 151.28C837.588 151.28 831.06 149.787 825.513 146.8C819.966 143.728 815.657 139.589 812.585 134.384C809.513 129.093 807.977 123.077 807.977 116.336C807.977 111.131 808.83 106.352 810.537 102C812.244 97.648 814.633 93.8933 817.705 90.736C820.777 87.4933 824.404 85.0187 828.585 83.312C832.852 81.52 837.502 80.624 842.537 80.624C847.316 80.624 851.668 81.4773 855.593 83.184C859.604 84.8907 863.06 87.28 865.961 90.352C868.862 93.424 871.081 97.0507 872.617 101.232C874.153 105.413 874.836 109.979 874.665 114.928L874.537 120.432H820.393L817.449 108.912H857.897L855.721 111.344V108.784C855.55 106.651 854.868 104.773 853.673 103.152C852.564 101.445 851.07 100.123 849.193 99.184C847.316 98.2453 845.182 97.776 842.793 97.776C839.465 97.776 836.606 98.4587 834.217 99.824C831.913 101.104 830.164 103.024 828.969 105.584C827.774 108.059 827.177 111.131 827.177 114.8C827.177 118.555 827.945 121.84 829.481 124.656C831.102 127.387 833.406 129.52 836.393 131.056C839.465 132.592 843.092 133.36 847.273 133.36C850.174 133.36 852.734 132.933 854.953 132.08C857.257 131.227 859.732 129.776 862.377 127.728L871.977 141.296C869.332 143.6 866.516 145.477 863.529 146.928C860.542 148.379 857.47 149.445 854.313 150.128C851.241 150.896 848.169 151.28 845.097 151.28Z"
        fill="white" />
    <path d="M95.5 5L186 55.5V156.5L95.5 207L5 156.5V55.5L95.5 5Z" fill="white" stroke="white" stroke-width="10"
        stroke-linecap="round" stroke-linejoin="round" />
    <path d="M95.1117 26.252L165.999 66.1259V145.874L95.1117 185.748L24.2246 145.874V66.1259L95.1117 26.252Z"
        stroke="#02BA09" stroke-width="14" stroke-linecap="round" stroke-linejoin="round" />
    <path d="M95.1152 106L166.002 66.126" stroke="#02BA09" stroke-width="14" stroke-linecap="round"
        stroke-linejoin="round" />
    <path d="M95.1152 106V185.748" stroke="#02BA09" stroke-width="14" stroke-linecap="round" stroke-linejoin="round" />
    <path d="M95.1117 106L24.2246 66.126" stroke="#02BA09" stroke-width="14" stroke-linecap="round"
        stroke-linejoin="round" />
    <path d="M130.557 46.189L59.6699 86.063" stroke="#02BA09" stroke-width="14" stroke-linecap="round"
        stroke-linejoin="round" />
</svg>