<svg width="82" height="23" viewBox="0 0 82 23" xmlns="http://www.w3.org/2000/svg" class="icon-logo-aktin"><g fill="#303233" fill-rule="evenodd"><path d="M40.481 7.495c-.89-1.118-2.122-1.666-3.72-1.666-1.529 0-2.83.593-3.925 1.757-1.072 1.164-1.62 2.579-1.62 4.268 0 1.688.548 3.126 1.62 4.29 1.096 1.164 2.396 1.734 3.925 1.734 1.598 0 2.83-.548 3.72-1.666v1.346h2.944V6.148h-2.944v1.347zm-.913 6.686c-.593.594-1.346.89-2.259.89-.913 0-1.666-.296-2.26-.89-.592-.616-.89-1.392-.89-2.327 0-.936.298-1.712.89-2.305.594-.617 1.347-.913 2.26-.913.913 0 1.666.296 2.26.913.615.593.912 1.369.912 2.305 0 .935-.297 1.71-.913 2.327zM61.861 2.954l-2.944.89v2.304h-1.985v2.83h1.985v8.58h2.944v-8.58h1.986v-2.83h-1.986zM67.311 1.287c-.982 0-1.803.845-1.803 1.826 0 .981.821 1.803 1.803 1.803 1.004 0 1.826-.822 1.826-1.803s-.822-1.826-1.826-1.826M65.85 17.559h2.944V6.149H65.85zM80.223 7.084c-.8-.844-1.826-1.255-3.081-1.255-1.552 0-2.693.525-3.4 1.597V6.148h-2.944v11.41h2.944v-6.161c0-1.894.981-2.83 2.51-2.83 1.37 0 2.26.822 2.26 2.35v6.642h2.943v-7.006c0-1.484-.41-2.624-1.232-3.469M52.553 6.148l-4.18 5.092V1.584h-2.944v15.974h2.944v-5.092l4.18 5.092h3.377l-4.74-5.704 4.74-5.706zM12.195.058h-.001a7.644 7.644 0 00-6.62 3.822l-4.415 7.646a7.645 7.645 0 006.62 11.467h5.41l4.146-7.182 4.147 7.182 4.184-7.246L18.815 3.88a7.645 7.645 0 00-6.62-3.822zm5.131 15.75H7.055l5.134-8.892 5.145 8.893h-.008z"></path></g></svg>