<?xml version="1.0" encoding="utf-8"?>
<!-- Generator: Adobe Illustrator 26.0.1, SVG Export Plug-In . SVG Version: 6.00 Build 0)  -->
<svg version="1.1" id="Layer_1" xmlns="http://www.w3.org/2000/svg" xmlns:xlink="http://www.w3.org/1999/xlink" x="0px" y="0px"
	 viewBox="0 0 549.3 171.4" style="enable-background:new 0 0 549.3 171.4;" xml:space="preserve">
<style type="text/css">
	.st0{fill:#4B4B4B;}
	.st1{fill:#4D4D4D;}
	.st2{fill:#FFFFFF;}
	.st3{fill:#7BAB14;}
</style>
<g>
	<g>
		<path class="st0" d="M154.5,127.9c-3.4,1.3-8.7,2.6-12.4,2.6c-1,0-1.9-0.5-1.9-1.6c0-2.6,0.4-5.2,0.4-7.8c0-0.7,0-1.5-0.1-2.2
			c0-0.3,0-0.7-0.3-0.8c-0.8-0.2-2-0.5-2-1.5c0-0.8,0.8-1.6,1.4-1.9c0.2-0.1,0.4-0.2,0.6-0.3c0.2-0.1,0.3-0.5,0.3-0.9v-0.7
			c0-0.6,0-0.8-0.4-1c-0.9-0.3-1.9-0.8-1.9-1.9c0-0.9,0.7-1.9,1.1-2.7c0.4-0.6,1-1.4,1.8-1.4c0.9,0,1.6,1,2.9,1
			c1.2,0,2.4-0.1,3.6-0.1c1.4,0,2.8,0,4.1,0.1c0.9,0.1,1.5,0.5,1.5,1.5c0,0.9-0.7,1.6-1.6,1.6h-0.5c-1.1,0-2.2-0.1-3.4-0.1
			c-1.2,0-2.2,0.1-3.3,0.4c-0.2,0-0.8,0.2-0.8,0.6v2.8c0,0.5,0.2,0.4,0.6,0.5c3.2,0.2,5.7,0,8.8,1.5c0.4,0.2,1,0.6,1,1.1
			c0,0.8-1.2,1.1-1.8,1.1c-0.2,0-0.5,0-1.2-0.1c-1.8-0.2-4.3-0.3-6.9-0.3c-0.2,0-0.4,0.2-0.4,0.4c-0.1,0.3-0.1,0.7-0.1,1.1
			c-0.1,1.4-0.2,2.8-0.2,4.1c0,0.8,0,1.6,0.1,2.4c0.1,0.6,0.3,1,1,1.1c0.6,0.1,1.4,0.1,2,0.1c2.1,0,4.3-0.3,6.4-0.6
			c0.4-0.1,1.1-0.2,1.5-0.2c0.6,0,1,0.4,1,1C155.2,127.4,154.9,127.8,154.5,127.9z"/>
		<path class="st0" d="M164.3,121.3c-0.5,0-1-0.1-1.5-0.1c-1.3,0-2.6,0.2-3.9,0.2c-0.4,0-0.9,0-1.4-0.1c-0.7-0.1-1-1.1-1-1.7
			c0-0.6,0.3-1.2,1-1.3c0.9-0.1,1.8-0.1,2.6-0.1c1.5,0,3.2,0.1,4.6,0.5c0.5,0.1,0.7,0.5,0.7,1C165.4,120.4,165.1,121.3,164.3,121.3z
			"/>
		<path class="st0" d="M177,116.8c-0.2,0.8-1.5,1.5-2.2,1.5c-1.1,0-0.5-1.6-1.1-1.6c-0.2,0-1.8,0.9-2.5,1.2
			c-0.1,0.1-0.3,0.1-0.3,0.3c0,0.1,0.1,0.2,0.1,0.2c0.5,0.5,1,1,1.5,1.4c1.2,1.2,2.4,2.4,3.5,3.7c0.4,0.5,0.7,1.2,0.7,1.9
			c0,0.8-0.3,1.5-1,2.1c-1.3,1.2-4.6,2.3-6.4,2.3c-0.5,0-1.1-0.1-1.5-0.3c-0.6-0.4-1.2-1-1.2-1.7c0-0.8,0.7-1.4,1.5-1.4
			c0.6,0,1.2,0.4,1.8,0.4c0.6,0,2.8-0.6,2.8-1.4c0-0.4-0.4-0.8-0.6-1.2c-1.3-1.7-2.2-2.3-3.9-3.5c-1.1-0.7-1.7-1.6-1.7-3
			c0-1.1,0.5-1.8,1.5-2.3c1.6-0.7,4.4-2.4,6.1-2.4c0.2,0,0.3,0,0.5,0c1.4,0.4,2.5,1.1,2.5,2.7C177.1,116.1,177,116.4,177,116.8z"/>
		<path class="st0" d="M193.2,128.7c-0.5,0-1.1-0.2-1.2-0.7l-0.2-1.2c-0.3-1.3-0.8-2.4-1.4-3.6c-0.6-1.2-0.6-2.7-1.1-3.8
			c-0.1-0.2-0.2-0.3-0.4-0.3c-0.2,0-0.3,0.1-0.3,0.2c-0.2,0.3-0.4,0.7-0.6,1.1c-0.6,1-1.3,1.9-2.1,2.8c-1.1,1.2-1.3,2.9-2.4,4
			c-0.4,0.4-1,0.5-1.5,0.5c-0.6,0-1.4-0.2-1.4-1c-0.1-1-0.1-2-0.2-3c-0.2-2.2-0.4-4.4-0.6-6.6c-0.2-2.4-0.4-4.8-0.4-7.2v-0.5
			c0-0.8,0-1.7,0.1-2.4c0.1-0.7,0.6-1.1,1.3-1.1c1,0,2.4,0.7,2.4,1.8c0,0.1,0,0.3-0.1,0.4c-0.3,1.2-0.3,4-0.3,5.5v0.4
			c0,2,0,4.8,0.3,6.8c0.1,1,0.3,1.2,0.7,0.6c1.6-2,2.8-4.3,4.5-6.3c0.4-0.4,0.9-0.9,1.6-0.9c0.7,0,1.2,0.6,1.5,1.2
			c0.7,1.4,1.1,3,1.6,4.5c0.6,2,1.4,3.9,2.4,5.9c0.1,0.3,0.2,0.6,0.2,0.9C195.3,128,194.2,128.7,193.2,128.7z"/>
		<path class="st0" d="M209.2,122.1c-0.7,3-2.9,6.3-6.3,6.3c-3,0-6-2.8-6-5.8c0-2.7,1.5-4.5,3.6-5.8c1-0.6,2-1.3,2.9-2.1
			c0.6-0.5,1.2-1,2-1c1,0,1.6,0.5,2,1.4c0.7,1.8,1.9,3.8,1.9,5.7C209.4,121.2,209.3,121.6,209.2,122.1z M206.2,119.2
			c-0.1-0.1-0.2-0.2-0.3-0.1c-0.3,0.3-0.7,0.4-1,0.4c-0.8,0-1.2-0.7-1.7-0.7c-0.4,0-0.8,0.3-1.1,0.5c-1.1,0.7-1.6,1.5-1.6,2.8
			c0,1.9,1,3,2.9,3c1.9,0,3.3-2,3.3-3.8C206.7,120.8,206.5,119.7,206.2,119.2z"/>
		<path class="st0" d="M216.7,124.7c-0.5,0.1-0.7,0.2-0.9,0.7c-0.1,0.4-0.1,0.8-0.1,1.2c0,1.5,0.5,3,0.5,4.5c0,1-0.5,3.5-1.7,3.5
			c-0.7,0-1.3-1-1.6-1.5c-1-1.8-1.3-3.8-1.3-5.9c0-1.7,0.2-3.4,0.2-5.1c0-1.5-0.2-2.9-0.6-4.4c0-0.1-0.1-0.3-0.1-0.5
			c0-2,3.5-3.3,5.1-3.3c2.9,0,5.5,2.4,5.5,5.3C221.8,121.9,219.3,124.3,216.7,124.7z M216.2,117.5c-0.8,0-1,0.8-1,1.5
			c0,0.4,0.1,2.3,0.2,2.5c0.1,0.1,0.1,0.1,0.2,0.1c0.2,0,0.5-0.1,0.7-0.1c1-0.3,2.4-0.8,2.4-2C218.8,118.3,217.3,117.5,216.2,117.5z
			"/>
		<path class="st0" d="M238.8,124.7c-0.5,0.1-0.7,0.2-0.9,0.7c-0.1,0.4-0.1,0.8-0.1,1.2c0,1.5,0.5,3,0.5,4.5c0,1-0.5,3.5-1.7,3.5
			c-0.7,0-1.3-1-1.6-1.5c-1-1.8-1.3-3.8-1.3-5.9c0-1.7,0.2-3.4,0.2-5.1c0-1.5-0.2-2.9-0.6-4.4c0-0.1-0.1-0.3-0.1-0.5
			c0-2,3.5-3.3,5.1-3.3c2.9,0,5.5,2.4,5.5,5.3C243.9,121.9,241.4,124.3,238.8,124.7z M238.3,117.5c-0.8,0-1,0.8-1,1.5
			c0,0.4,0.1,2.3,0.2,2.5c0.1,0.1,0.1,0.1,0.2,0.1c0.2,0,0.5-0.1,0.7-0.1c1-0.3,2.4-0.8,2.4-2C240.9,118.3,239.4,117.5,238.3,117.5z
			"/>
		<path class="st0" d="M255.6,119.4c-0.5,0-0.9-0.3-1.4-0.3c-0.3,0-0.5,0.2-0.7,0.5c-1.3,1.9-1,4.5-1.9,6.6
			c-0.3,0.6-0.9,1.1-1.6,1.1c-0.8,0-1.3-0.4-1.5-1.2c-0.4-1.4-0.7-2.7-1.2-4.1c-0.5-1.5-1.9-3.1-1.9-4.6c0-1,0.6-1.6,1.6-1.6
			c0.3,0,0.7,0.1,1,0.3c1.2,0.9,1.6,1.4,1.8,2.9c0.1,0.4,0.1,0.8,0.2,1.2c0,0.1,0.1,0.2,0.2,0.2c0.2,0,0.2-0.2,0.3-0.3
			c0.9-1.7,0-3.6,2.6-4.2c0.3-0.1,0.7-0.1,1.1-0.1c1.3,0,2.8,0.6,2.8,2C256.9,118.4,256.5,119.4,255.6,119.4z"/>
		<path class="st0" d="M270.8,122.1c-0.7,3-2.9,6.3-6.3,6.3c-3,0-6-2.8-6-5.8c0-2.7,1.5-4.5,3.6-5.8c1-0.6,2-1.3,2.9-2.1
			c0.6-0.5,1.2-1,2-1c1,0,1.6,0.5,2,1.4c0.7,1.8,1.9,3.8,1.9,5.7C270.9,121.2,270.9,121.6,270.8,122.1z M267.7,119.2
			c-0.1-0.1-0.2-0.2-0.3-0.1c-0.3,0.3-0.7,0.4-1,0.4c-0.8,0-1.2-0.7-1.7-0.7c-0.4,0-0.8,0.3-1.1,0.5c-1.1,0.7-1.6,1.5-1.6,2.8
			c0,1.9,1,3,2.9,3c1.9,0,3.3-2,3.3-3.8C268.2,120.8,268,119.7,267.7,119.2z"/>
		<path class="st0" d="M296.2,126.1c-0.7,0.2-1.4,0.2-2.1,0.2c-1.8,0-3.5-0.5-5.3-0.9c-0.3-0.1-0.5-0.2-0.9-0.2
			c-0.2,0-0.4,0.1-0.4,0.4c0,0.8,1.2,2.2,1.2,2.8c0,0.6-0.8,0.8-1.3,0.8c-0.7,0-1.9-0.3-2.2-1c-1-2.4-1.7-4.9-2-7.5
			c-0.2-2.5-0.2-5.1-0.5-7.6c-0.2-2-0.6-3.8-1.9-5.5c-0.2-0.3-0.3-0.5-0.3-0.9c0-1,0.7-2.2,1.8-2.2c0.3,0,0.7,0.1,1,0.3
			c2.7,1.5,1.9,4.8,2.3,7.4c0.2,1.1,0.2,2.2,0.3,3.3c0,0.8,0,1.7,0.1,2.5c0,0.2,0.1,0.4,0.3,0.4c0.2,0,0.4-0.1,0.5-0.3
			c1.3-1.2,4-4.2,5.9-4.2c1.1,0,1.7,0.8,1.7,1.9c0,0.8-0.4,1.9-1.4,1.9c-0.3,0-0.5-0.1-0.7-0.1c-0.8,0-3.1,2.3-3.8,2.9
			c-0.3,0.2-0.3,0.4-0.1,0.6c2.1,1,4.9,2,7.2,2c0.8,0,1.3,0.4,1.3,1.3C297.1,125.2,296.8,126,296.2,126.1z"/>
		<path class="st0" d="M316.4,129c-0.3,0-0.5-0.1-0.7-0.3c-2.2-1.7-2.8-3.8-3.5-6.3c-0.1-0.3-0.2-0.8-0.6-0.8
			c-0.3,0-0.5,0.2-0.7,0.4c-0.5,0.5-1,1.1-1.5,1.6c-1.4,1.4-2.9,2.6-4.6,3.6c-0.8,0.4-1.7,0.8-2.7,0.8c-2.2,0-3.6-1.9-3.6-4
			c0-0.7,0.2-1.4,0.6-2c1.9-3,4.6-4.5,7.7-6c0.7-0.3,1.6-0.6,2.4-0.6c1.5,0,1.9,1.1,2.4,1.1c0.5,0,0.6-1,1.6-1
			c0.7,0,1.6,0.7,1.9,1.4c1,2.2,0,6.6,1.7,8.4c0.3,0.3,0.5,0.4,0.9,0.5c0.4,0.2,0.6,0.5,0.6,1C318.3,127.5,317.5,129,316.4,129z
			 M307.8,119c-0.2,0-0.5,0.2-0.9,0.4c-1.8,1-3.4,2.2-4.7,3.8c-0.1,0.1-0.1,0.3-0.1,0.5c0,0.6,0.5,0.8,1,0.8c1,0,2.7-1.7,3.5-2.3
			c0.4-0.2,0.8-0.5,1.2-0.6l0.4-0.1c0.3-0.1,0.3-0.4,0.3-0.6C308.4,120.5,308.3,119,307.8,119z"/>
		<path class="st0" d="M333.5,127.5c-1,0.5-5.3,0.5-6.5,0.5c-0.3,0-0.7,0-1.1,0c-0.8,0-1.7,0-2.4-0.2c-0.8-0.2-1.6-0.6-1.6-1.5
			c0-0.6,0.4-1.2,0.8-1.7c1-1,3.9-4.7,3.9-6c0-0.6-1-0.7-1.5-0.7c-1.3,0-2.1,1-3.4,1c-1.1,0-2.8-0.4-2.8-1.8c0-1.7,0.7-2.2,2.3-2.4
			c0.6-0.1,1.2-0.1,1.8-0.1c1.9,0,7.4,0.4,7.4,3.1c0,1.5-2.3,5.2-3.4,6.4c-0.1,0.1-0.5,0.5-0.5,0.7c0,0.2,0.4,0.2,0.5,0.2
			c0.7,0,1.5,0,2.4,0c1.3,0,2.6,0,3.9,0c0.6,0,1,0.4,1,1C334.5,126.7,334,127.3,333.5,127.5z M331.4,110.4c-1.1,0.8-4.7,3.9-5.9,3.9
			c-0.5,0-1-0.4-1.4-0.8c-0.7-0.7-1.9-1.9-2.5-2.7c-0.2-0.3-0.3-0.6-0.3-0.9c0-1.2,0.8-1.9,2-1.9c2,0,2.2,2,3.6,2
			c1.1,0,2.5-2.9,4.1-2.9c0.7,0,1.6,0.8,1.6,1.6C332.8,109.3,332,109.9,331.4,110.4z"/>
		<path class="st0" d="M353.2,127.3c-1.6,0-2.5-1.5-3.1-2.8c-0.3-0.7-0.5-1.6-0.9-2.2c-0.1-0.2-0.4-0.3-0.6-0.3
			c-0.2,0-0.3,0.1-0.5,0.2c-0.3,0.4-0.6,0.9-0.9,1.3c-1.3,1.8-2.6,3-4.6,4c-1,0.4-2.1,0.8-3.2,0.8c-1.8,0-3.6-1.1-3.6-3.1
			c0-0.6,0.2-1.3,0.6-1.8c2.6-3.4,6.5-5.4,10.1-7.4c0.2-0.1,0.7-0.3,0.7-0.6c0-1.8-0.4-4.1-0.7-5.9v-0.2c0-0.7,0.6-1.1,1.3-1.1
			c0.4,0,0.7,0.1,1.1,0.4c1.5,1.2,2.3,3.1,2.4,4.9c0.1,3.3,0.2,9.9,3.5,11.6c0.4,0.2,0.9,0.4,0.9,1
			C355.6,126.8,354,127.3,353.2,127.3z M346.8,119c-0.1,0-0.1,0-0.2,0.1c-2.3,1.3-5.7,3.2-7.3,5.2c-0.1,0.1-0.1,0.3-0.1,0.4
			c0,0.5,0.3,0.7,0.8,0.7c0.3,0,0.6-0.1,0.9-0.2c2.2-0.9,3.7-2.7,5.2-4.5c0.8-0.9,1-1.2,1-1.4C347.1,119.1,347,119,346.8,119z"/>
		<path class="st0" d="M369.7,122.1c-0.7,3-2.9,6.3-6.3,6.3c-3,0-6-2.8-6-5.8c0-2.7,1.5-4.5,3.6-5.8c1-0.6,2-1.3,2.9-2.1
			c0.6-0.5,1.2-1,2-1c1,0,1.6,0.5,2,1.4c0.7,1.8,1.9,3.8,1.9,5.7C369.8,121.2,369.8,121.6,369.7,122.1z M366.6,119.2
			c-0.1-0.1-0.2-0.2-0.3-0.1c-0.3,0.3-0.7,0.4-1,0.4c-0.8,0-1.2-0.7-1.7-0.7c-0.4,0-0.8,0.3-1.1,0.5c-1.1,0.7-1.6,1.5-1.6,2.8
			c0,1.9,1,3,2.9,3c1.9,0,3.3-2,3.3-3.8C367.1,120.8,366.9,119.7,366.6,119.2z"/>
		<path class="st0" d="M388.9,127.3c-1.6,0-2.5-1.5-3.1-2.8c-0.3-0.7-0.5-1.6-0.9-2.2c-0.1-0.2-0.4-0.3-0.6-0.3
			c-0.2,0-0.3,0.1-0.5,0.2c-0.3,0.4-0.6,0.9-0.9,1.3c-1.3,1.8-2.6,3-4.6,4c-1,0.4-2.1,0.8-3.2,0.8c-1.8,0-3.6-1.1-3.6-3.1
			c0-0.6,0.2-1.3,0.6-1.8c2.6-3.4,6.5-5.4,10.1-7.4c0.2-0.1,0.7-0.3,0.7-0.6c0-1.8-0.4-4.1-0.7-5.9v-0.2c0-0.7,0.6-1.1,1.3-1.1
			c0.4,0,0.7,0.1,1.1,0.4c1.5,1.2,2.3,3.1,2.4,4.9c0.1,3.3,0.2,9.9,3.5,11.6c0.4,0.2,0.9,0.4,0.9,1
			C391.2,126.8,389.6,127.3,388.9,127.3z M382.5,119c-0.1,0-0.1,0-0.2,0.1c-2.3,1.3-5.7,3.2-7.3,5.2c-0.1,0.1-0.1,0.3-0.1,0.4
			c0,0.5,0.3,0.7,0.8,0.7c0.3,0,0.6-0.1,0.9-0.2c2.2-0.9,3.7-2.7,5.2-4.5c0.8-0.9,1-1.2,1-1.4C382.7,119.1,382.6,119,382.5,119z"/>
		<path class="st0" d="M408.9,128.2c-1.3,1-4.1,1.3-5.7,1.3c-1.3,0-2.6-0.1-3.8-0.5c-2.7-0.8-6.3-2.4-6.3-5.7c0-0.3,0-0.6,0.1-1
			c0.5-3.4,2.5-4.9,5.2-6.6c1.6-1,3.4-1.9,5.4-1.9c2,0,4.7,1,4.7,3.4c0,1-0.4,1.8-1.1,2.5c-2,2-4.2,1.9-6.6,2.9
			c-0.8,0.4-1.9,0.7-2.8,0.7c-0.5,0-1-0.1-1.4-0.4c-0.1-0.1-0.3-0.1-0.3,0.1c0,2.1,3,2.9,4.6,3.3c1,0.3,2,0.4,3.1,0.4
			c1.3,0,2.5-0.2,3.8-0.4c0.1,0,0.2,0,0.3,0c0.7,0,1.1,0.5,1.1,1.1C409.3,127.7,409.2,128,408.9,128.2z M404.7,116.8
			c-0.4,0-0.9,0.1-1.3,0.2c-2.1,0.5-4.8,1.6-6.3,3.3c-0.2,0.3-0.1,0.4,0.3,0.2c1.1-0.4,2.2-0.5,3.4-0.8c0.8-0.2,4.4-1.2,4.4-2.2
			C405.2,117,405,116.8,404.7,116.8z"/>
		<path class="st0" d="M423.6,129.6c-0.4,0-0.7-0.1-1.1-0.2c-3.2-1.5-1.7-5.9-2.7-7.8c-0.1-0.2-0.4-0.8-0.6-0.8
			c-0.2,0-0.3,0.1-0.4,0.2c-1.2,1.4-1.1,3.6-2.8,4.7c-0.4,0.3-0.9,0.5-1.4,0.5c-1.3,0-2-1.6-2-2.7v-0.6c0-2.1-0.4-4.1-1.6-5.9
			c-0.1-0.2-0.2-0.4-0.2-0.6c0-1.2,1.4-2.4,2.5-2.4c0.3,0,0.6,0.1,0.8,0.2c1.2,0.6,1.1,4.3,1.4,5.6c0,0.2,0.1,0.6,0.4,0.6
			c0.2,0,0.4-0.2,0.5-0.4c1-1.2,1.3-2.2,1.9-3.5c0.2-0.4,0.5-0.6,1-0.6c0.8,0,1.8,0.6,2.3,1.3c0.8,1.4,1.2,4,1.5,5.6
			c0.1,0.8,0.4,3.5,1.1,3.8c0.6,0.3,1.1,0.7,1.1,1.4C425.4,129,424.4,129.6,423.6,129.6z"/>
		<path class="st0" d="M439.1,129.6c-0.4,0-0.7-0.1-1.1-0.2c-3.2-1.5-1.7-5.9-2.7-7.8c-0.1-0.2-0.4-0.8-0.6-0.8
			c-0.2,0-0.3,0.1-0.4,0.2c-1.2,1.4-1.1,3.6-2.8,4.7c-0.4,0.3-0.9,0.5-1.4,0.5c-1.3,0-2-1.6-2-2.7v-0.6c0-2.1-0.4-4.1-1.6-5.9
			c-0.1-0.2-0.2-0.4-0.2-0.6c0-1.2,1.4-2.4,2.5-2.4c0.3,0,0.6,0.1,0.8,0.2c1.2,0.6,1.1,4.3,1.4,5.6c0,0.2,0.1,0.6,0.4,0.6
			c0.2,0,0.4-0.2,0.5-0.4c1-1.2,1.3-2.2,1.9-3.5c0.2-0.4,0.5-0.6,1-0.6c0.8,0,1.8,0.6,2.3,1.3c0.8,1.4,1.2,4,1.5,5.6
			c0.1,0.8,0.4,3.5,1.1,3.8c0.6,0.3,1.1,0.7,1.1,1.4C440.9,129,440,129.6,439.1,129.6z"/>
		<path class="st0" d="M445.9,127.9c-1.7,0-2.2-1.3-2.2-2.8c0-0.6,0.1-1.2,0.1-1.8c0-1.4-0.2-3.8-0.7-5.1c-0.2-0.5-0.3-1-0.3-1.5
			c0-1,0.5-1.5,1.5-1.5h0.3c2,0.2,2.2,1,2.2,2.4v3c0,1.2,0,2.4,0.2,3.5c0.1,0.5,0.2,1.1,0.2,1.7C447.2,126.6,447,127.9,445.9,127.9z
			 M451.7,105.8c0,0.6-0.7,1.1-1.1,1.5c-2,1.6-2.9,2.3-4.3,4.5c-0.3,0.5-0.7,0.8-1.4,0.8c-0.9,0-2.1-0.8-2.1-1.8
			c0-0.3,0.1-0.5,0.4-0.7c1-0.9,4.5-4.4,5.3-4.8c0.4-0.2,1.4-0.3,1.9-0.3c0.5,0,1.4,0.1,1.4,0.7V105.8z"/>
		<path class="st0" d="M473.4,128.7c-0.5,0-1.1-0.2-1.2-0.7l-0.2-1.2c-0.3-1.3-0.8-2.4-1.4-3.6c-0.6-1.2-0.6-2.7-1.1-3.8
			c-0.1-0.2-0.2-0.3-0.4-0.3c-0.2,0-0.3,0.1-0.3,0.2c-0.2,0.3-0.4,0.7-0.6,1.1c-0.6,1-1.3,1.9-2.1,2.8c-1.1,1.2-1.3,2.9-2.4,4
			c-0.4,0.4-1,0.5-1.5,0.5c-0.6,0-1.4-0.2-1.4-1c-0.1-1-0.1-2-0.2-3c-0.2-2.2-0.4-4.4-0.6-6.6c-0.2-2.4-0.4-4.8-0.4-7.2v-0.5
			c0-0.8,0-1.7,0.1-2.4c0.1-0.7,0.6-1.1,1.3-1.1c1,0,2.4,0.7,2.4,1.8c0,0.1,0,0.3-0.1,0.4c-0.3,1.2-0.3,4-0.3,5.5v0.4
			c0,2,0,4.8,0.3,6.8c0.1,1,0.3,1.2,0.7,0.6c1.6-2,2.8-4.3,4.5-6.3c0.4-0.4,0.9-0.9,1.6-0.9c0.7,0,1.2,0.6,1.5,1.2
			c0.7,1.4,1.1,3,1.6,4.5c0.6,2,1.4,3.9,2.4,5.9c0.1,0.3,0.2,0.6,0.2,0.9C475.5,128,474.4,128.7,473.4,128.7z"/>
		<path class="st0" d="M486.7,119.4c-0.5,0-0.9-0.3-1.4-0.3c-0.3,0-0.5,0.2-0.7,0.5c-1.3,1.9-1,4.5-1.9,6.6
			c-0.3,0.6-0.9,1.1-1.6,1.1c-0.8,0-1.3-0.4-1.5-1.2c-0.4-1.4-0.7-2.7-1.2-4.1c-0.5-1.5-1.9-3.1-1.9-4.6c0-1,0.6-1.6,1.6-1.6
			c0.3,0,0.7,0.1,1,0.3c1.2,0.9,1.6,1.4,1.8,2.9c0.1,0.4,0.1,0.8,0.2,1.2c0,0.1,0.1,0.2,0.2,0.2c0.2,0,0.2-0.2,0.3-0.3
			c0.9-1.7,0-3.6,2.6-4.2c0.3-0.1,0.7-0.1,1.1-0.1c1.3,0,2.8,0.6,2.8,2C488,118.4,487.6,119.4,486.7,119.4z"/>
		<path class="st0" d="M506.8,127.3c-1.6,0-2.5-1.5-3.1-2.8c-0.3-0.7-0.5-1.6-0.9-2.2c-0.1-0.2-0.4-0.3-0.6-0.3
			c-0.2,0-0.3,0.1-0.5,0.2c-0.3,0.4-0.6,0.9-0.9,1.3c-1.3,1.8-2.6,3-4.6,4c-1,0.4-2.1,0.8-3.2,0.8c-1.8,0-3.6-1.1-3.6-3.1
			c0-0.6,0.2-1.3,0.6-1.8c2.6-3.4,6.5-5.4,10.1-7.4c0.2-0.1,0.7-0.3,0.7-0.6c0-1.8-0.4-4.1-0.7-5.9v-0.2c0-0.7,0.6-1.1,1.3-1.1
			c0.4,0,0.7,0.1,1.1,0.4c1.5,1.2,2.3,3.1,2.4,4.9c0.1,3.3,0.2,9.9,3.5,11.6c0.4,0.2,0.9,0.4,0.9,1
			C509.2,126.8,507.6,127.3,506.8,127.3z M500.4,119c-0.1,0-0.1,0-0.2,0.1c-2.3,1.3-5.7,3.2-7.3,5.2c-0.1,0.1-0.1,0.3-0.1,0.4
			c0,0.5,0.3,0.7,0.8,0.7c0.3,0,0.6-0.1,0.9-0.2c2.2-0.9,3.7-2.7,5.2-4.5c0.8-0.9,1-1.2,1-1.4C500.7,119.1,500.5,119,500.4,119z"/>
		<path class="st0" d="M514.3,111.5c-0.3,0.1-0.6,0.1-0.9,0.1c-1.5,0-2.8-0.9-3.5-2.2c-0.1-0.2-0.2-0.4-0.2-0.7
			c0-0.8,0.9-1.2,1.7-1.2c1.2,0,4.5,1,4.5,2.4C515.8,110.6,515,111.3,514.3,111.5z M514.9,127.8c-0.5,0-1.1-0.1-1.4-0.5
			c-1.1-1.1-1.9-2.5-1.9-4.1c-0.1-1.7-0.1-3.4-0.1-5.2v-2.3c0-0.7,0.4-1.2,1.2-1.2c1.1,0,2.3,0.9,2.3,2.1c0,1.5-0.4,3-0.4,4.4
			c0,3.2,2.6,4.6,2.6,5.5C517.1,127.5,515.6,127.8,514.9,127.8z"/>
		<path class="st0" d="M531.1,129.6c-0.4,0-0.7-0.1-1.1-0.2c-3.2-1.5-1.7-5.9-2.7-7.8c-0.1-0.2-0.4-0.8-0.6-0.8
			c-0.2,0-0.3,0.1-0.4,0.2c-1.2,1.4-1.1,3.6-2.8,4.7c-0.4,0.3-0.9,0.5-1.4,0.5c-1.3,0-2-1.6-2-2.7v-0.6c0-2.1-0.4-4.1-1.6-5.9
			c-0.1-0.2-0.2-0.4-0.2-0.6c0-1.2,1.4-2.4,2.5-2.4c0.3,0,0.6,0.1,0.8,0.2c1.2,0.6,1.1,4.3,1.4,5.6c0,0.2,0.1,0.6,0.4,0.6
			c0.2,0,0.4-0.2,0.5-0.4c1-1.2,1.3-2.2,1.9-3.5c0.2-0.4,0.5-0.6,1-0.6c0.8,0,1.8,0.6,2.3,1.3c0.8,1.4,1.2,4,1.5,5.6
			c0.1,0.8,0.4,3.5,1.1,3.8c0.6,0.3,1.1,0.7,1.1,1.4C532.9,129,531.9,129.6,531.1,129.6z"/>
		<path class="st0" d="M548.5,119.1c-1.2,2.4-2.5,4.8-3.9,7c-1.6,2.7-3.4,5.5-4.9,9c-0.3,0.6-1.1,1.1-1.7,1.1c-0.6,0-1-0.3-1-0.9
			c0-0.1,0-0.2,0-0.4c0.8-3,1.9-4.8,3.3-7.3c0.3-0.5,0.6-1.1,1-1.8c0.3-0.5,0.4-0.6,0-1c-3.3-2.2-6.3-4.8-7.7-8.2
			c-0.1-0.2-0.2-0.5-0.2-0.5c0-0.8,1-1.8,1.8-1.8c0.4,0,0.8,0.2,1.2,0.7c1.8,2.6,3.8,4.8,6.3,6.8c0.4,0.3,0.6,0.5,1,0.1
			c1.1-1.5,1.7-3.1,2.3-5c0.3-0.8,0.8-1.2,1.3-1.2c0.8,0,1.8,0.9,1.8,1.8C549.2,118,548.8,118.6,548.5,119.1z"/>
	</g>
	<g>
		<path class="st1" d="M58.8,115.5c-3.6,6.4-5.3,11.2-5.4,11.4l-1.1,3.2l3.1,4.4l3.7-5.3c2.9-4.2,6.7-8.4,9.5-11.2
			C63.7,117.2,59.7,115.8,58.8,115.5"/>
		<path class="st2" d="M41.3,116.9C41.3,116.9,41.3,116.9,41.3,116.9C41.3,117,41.3,117,41.3,116.9L41.3,116.9z"/>
		<path class="st1" d="M106,49.3C98,37.2,84,35.5,83.4,35.5l-0.1,0c-1.3-0.1-2.6-0.2-3.8-0.2c-12.1,0-19.8,5.4-24,9.5
			c-4.2-4.2-11.9-9.5-24-9.5c-1.2,0-2.5,0.1-3.8,0.2l-0.1,0C27,35.5,13,37.2,4.9,49.3c-1,1.3-6.2,9.1-4.4,20.5l4.1,3.8
			c2.2,2,5.3,4.3,9,5.7c-0.3-0.5-0.5-0.8-0.6-0.9l0-0.1L12.9,78c-7.6-13.4-1.1-22.6-0.7-23.3l0.1-0.1l0.1-0.2
			C18,46,28,44.5,28.6,44.5c1-0.1,2-0.1,2.9-0.1c13.8,0,19.7,9.2,20.1,9.9l3.9,7.1l4-7.1c0.4-0.6,6.3-9.9,20.1-9.9
			c1,0,1.9,0,2.9,0.1c0.6,0.1,10.5,1.5,16.1,10l0.1,0.2l0.1,0.1c0,0.1,2.7,3.6,3,9.5c0.5-0.1,0.9-0.2,1.4-0.4
			c1.5-0.6,3.6-2.8,4.6-4.1l1.9-2.6C108.4,52.8,106.6,50.1,106,49.3"/>
		<path class="st3" d="M110,75.4c0.5-3.1,1.1-10.3,0.6-13.6c0,0-3,4.1-6.2,5.3c-6.3,2.4-11.4-0.9-20.7,2.3
			c-9.3,3.2-18.3,7.3-24.1,20.5c0,0-2.9,5.9-2.8,18.4c0,0-7.5,12.9-8.4,16.2l1.4,1.8c0,0,10.1-29.6,35.1-41.8
			c0,0-18.4,14.5-24.9,27.4c0,0,15.3,5.8,25.5,0.4C98.6,105.6,107.4,90.7,110,75.4"/>
		<path class="st2" d="M46.7,118.5c0,0-1.5-16.8-11.5-22.3c-10-5.4-9.8-2-20.8-5.8c0,0,5.6,1,11.3,1c5.7,0,18.8,4.2,21.2,18
			c0,0,4.4-17-9.4-22.6c0,0-4.8-3.3-13.6-2.5C15,85,7.7,81.4,2.2,76.3c0,0,5.1,17.7,14.6,27.5c9.5,9.8,21.1,10,21.1,10
			s5-0.4,6.2-2.3l1.4,7.9"/>
		<path class="st3" d="M46.7,118.5c0,0-1.5-16.8-11.5-22.3c-10-5.4-9.8-2-20.8-5.8c0,0,5.6,1,11.3,1c5.7,0,18.8,4.2,21.2,18
			c0,0,4.4-17-9.4-22.6c0,0-4.8-3.3-13.6-2.5C15,85,7.7,81.4,2.2,76.3c0,0,5.1,17.7,14.6,27.5c9.5,9.8,21.1,10,21.1,10
			s5-0.4,6.2-2.3l1.4,7.9"/>
	</g>
	<g>
		<path class="st3" d="M132.4,69.1c0-3.6,0.6-6.9,1.7-10c1.2-3.1,2.8-5.7,5-8c2.2-2.3,4.8-4,8-5.4c3.1-1.3,6.6-2,10.5-2
			c3.6,0,6.8,0.6,9.6,1.8c2.8,1.2,5.1,2.8,7.1,4.9c1.9,2.1,3.4,4.5,4.3,7.3c1,2.8,1.5,5.9,1.5,9.1c0,1.3-0.5,2.5-1.5,3.6
			c-1,1.2-2.3,1.7-4,1.7h-25.5c0.6,3,2,5.2,4.1,6.5c2.1,1.4,4.5,2,7.2,2c1.6,0,3.2-0.2,4.7-0.7c1.5-0.4,2.9-1,4.1-1.6
			c1.6-0.7,2.9-0.9,4-0.7c1.1,0.3,2.1,1.1,2.9,2.6l1.3,2.5c0.8,1.5,1,2.8,0.8,4c-0.3,1.2-1.1,2.3-2.5,3.1c-1.8,1-4,2-6.8,2.9
			c-2.8,0.9-6.1,1.4-9.8,1.4c-4.3,0-8.2-0.7-11.5-2.2c-3.3-1.4-6.1-3.3-8.3-5.7c-2.2-2.4-3.9-5.1-5.1-8.1
			C133,75.4,132.4,72.3,132.4,69.1z M164,63c0-2-0.6-3.7-1.8-5.1c-1.2-1.4-2.8-2.1-4.9-2.1c-2.4,0-4.2,0.7-5.4,2.2
			c-1.2,1.4-2,3.1-2.4,5.1H164z"/>
		<path class="st3" d="M184,69.1c0-3.3,0.6-6.4,1.8-9.5c1.2-3,2.9-5.7,5.2-8.1c2.3-2.4,5.1-4.2,8.5-5.6c3.4-1.4,7.2-2.1,11.5-2.1
			c3.7,0,6.8,0.5,9.4,1.4c2.6,0.9,4.6,1.9,6.2,3c1.3,0.9,2.1,1.9,2.2,3.2c0.2,1.2-0.2,2.5-1.1,3.9l-1.6,2.5c-0.9,1.4-1.9,2.2-3,2.4
			c-1.1,0.2-2.4-0.1-4-0.9c-0.9-0.5-2-0.9-3.2-1.3c-1.2-0.3-2.5-0.5-4-0.5c-1.9,0-3.6,0.3-5.1,1c-1.4,0.7-2.7,1.5-3.6,2.6
			c-1,1.1-1.7,2.3-2.2,3.7c-0.5,1.4-0.7,2.8-0.7,4.2c0,1.4,0.2,2.9,0.8,4.3c0.5,1.4,1.3,2.7,2.3,3.8c1,1.1,2.3,2,3.8,2.8
			c1.5,0.7,3.3,1.1,5.4,1.1c1.6,0,3.2-0.3,4.7-0.8c1.5-0.6,2.9-1.2,4-1.9c1.6-0.9,2.9-1.2,4.1-0.9c1.2,0.3,2.1,1.2,3,2.7l1.2,2.4
			c0.7,1.5,0.9,2.8,0.8,4c-0.2,1.2-0.9,2.2-2.2,3.1c-1.7,1.1-4,2.3-6.9,3.4c-2.9,1.1-6.3,1.7-10.4,1.7c-4.3,0-8.2-0.7-11.5-2.1
			c-3.4-1.4-6.2-3.2-8.5-5.6c-2.3-2.4-4-5.1-5.2-8.1C184.6,75.6,184,72.4,184,69.1z"/>
		<path class="st3" d="M233.1,69.3c0-3.8,0.7-7.3,2.2-10.4c1.4-3.1,3.4-5.8,5.9-8c2.5-2.2,5.4-4,8.7-5.2c3.3-1.2,6.9-1.8,10.6-1.8
			c3.8,0,7.4,0.6,10.8,1.8c3.4,1.2,6.3,2.9,8.8,5.2c2.5,2.2,4.4,4.9,5.9,8c1.4,3.1,2.2,6.6,2.2,10.4c0,3.8-0.7,7.2-2.2,10.3
			c-1.4,3.1-3.4,5.8-5.9,8c-2.5,2.2-5.4,3.9-8.7,5.1c-3.3,1.2-6.9,1.8-10.7,1.8c-3.8,0-7.4-0.6-10.7-1.8c-3.3-1.2-6.2-2.9-8.7-5.1
			c-2.5-2.2-4.4-4.9-5.9-8C233.8,76.5,233.1,73.1,233.1,69.3z M249.5,69.3c0,1.8,0.3,3.4,0.9,4.9c0.6,1.4,1.4,2.6,2.4,3.6
			c1,1,2.2,1.8,3.5,2.3c1.3,0.5,2.7,0.8,4.2,0.8s2.9-0.3,4.2-0.8c1.3-0.5,2.5-1.3,3.5-2.3c1-1,1.8-2.2,2.4-3.6
			c0.6-1.4,0.9-3.1,0.9-4.9c0-1.8-0.3-3.4-0.9-4.9c-0.6-1.5-1.4-2.7-2.4-3.7c-1-1-2.2-1.8-3.5-2.4c-1.3-0.6-2.7-0.8-4.2-0.8
			s-2.9,0.3-4.2,0.8c-1.3,0.6-2.5,1.4-3.5,2.4c-1,1-1.8,2.3-2.4,3.7C249.8,65.8,249.5,67.5,249.5,69.3z"/>
	</g>
	<g>
		<path class="st0" d="M294.8,50.1c0-3.4,1.7-5.2,5.2-5.2h5.3c3.4,0,5.1,1.7,5.1,5.2v0.8c0,0.1,0,0.3,0,0.4c0,0.1,0,0.3,0,0.4v0.5
			h0.2c0.6-0.9,1.3-1.9,2.2-2.9c0.9-1,1.9-1.9,3.2-2.7c1.3-0.8,2.7-1.4,4.4-2c1.7-0.5,3.6-0.8,5.7-0.8c2.4,0,4.7,0.3,6.9,0.9
			c2.1,0.6,4,1.6,5.5,3.1c1.5,1.4,2.8,3.3,3.7,5.6c0.9,2.3,1.4,5.2,1.4,8.6v26.3c0,3.5-1.7,5.2-5.2,5.2h-5.9c-3.5,0-5.2-1.7-5.2-5.2
			V65c0-2.3-0.4-3.9-1.3-4.9c-0.9-1-2.2-1.5-4-1.5c-1.8,0-3.4,0.3-4.7,1c-1.3,0.7-2.4,1.6-3.3,2.8c-0.9,1.2-1.5,2.6-1.9,4.1
			c-0.4,1.6-0.6,3.2-0.6,4.9v16.8c0,3.5-1.7,5.2-5.2,5.2H300c-3.5,0-5.2-1.7-5.2-5.2V50.1z"/>
		<path class="st0" d="M349.5,69.1c0-3.6,0.6-6.9,1.7-10c1.2-3.1,2.8-5.7,5-8c2.2-2.3,4.8-4,8-5.4c3.1-1.3,6.6-2,10.5-2
			c3.6,0,6.8,0.6,9.6,1.8c2.8,1.2,5.1,2.8,7.1,4.9c1.9,2.1,3.4,4.5,4.3,7.3c1,2.8,1.5,5.9,1.5,9.1c0,1.3-0.5,2.5-1.5,3.6
			c-1,1.2-2.3,1.7-4,1.7h-25.5c0.6,3,2,5.2,4.1,6.5c2.1,1.4,4.5,2,7.2,2c1.6,0,3.2-0.2,4.7-0.7c1.5-0.4,2.9-1,4.1-1.6
			c1.6-0.7,2.9-0.9,4-0.7c1.1,0.3,2.1,1.1,2.9,2.6l1.3,2.5c0.8,1.5,1,2.8,0.8,4c-0.3,1.2-1.1,2.3-2.5,3.1c-1.8,1-4,2-6.8,2.9
			c-2.8,0.9-6.1,1.4-9.8,1.4c-4.3,0-8.2-0.7-11.5-2.2c-3.3-1.4-6.1-3.3-8.3-5.7c-2.2-2.4-3.9-5.1-5.1-8.1
			C350,75.4,349.5,72.3,349.5,69.1z M381,63c0-2-0.6-3.7-1.8-5.1c-1.2-1.4-2.8-2.1-4.9-2.1c-2.4,0-4.2,0.7-5.4,2.2
			c-1.2,1.4-2,3.1-2.4,5.1H381z"/>
		<path class="st0" d="M400.5,79.7c0-3.3,0.9-6,2.6-8.1c1.7-2.1,3.9-3.8,6.6-5.1c2.7-1.3,5.6-2.1,8.8-2.6c3.2-0.5,6.3-0.8,9.3-0.8
			h1.4v-0.8c0-2-0.7-3.4-2.1-4.2c-1.4-0.8-3-1.2-4.8-1.2c-1.6,0-3.1,0.2-4.6,0.7c-1.5,0.4-2.9,0.9-4.1,1.5c-3.2,1.4-5.5,0.6-7-2.3
			l-1.1-2.4c-0.7-1.4-0.9-2.8-0.6-4c0.3-1.2,1.2-2.2,2.6-3c1.8-0.9,4.1-1.7,6.9-2.5c2.8-0.8,5.9-1.2,9.4-1.2c6.7,0,12,1.7,15.9,5.2
			c3.9,3.5,5.8,8.3,5.8,14.5v24.7c0,3.5-1.7,5.2-5.2,5.2h-4.5c-3.5,0-5.2-1.8-5.2-5.3v-0.4v-0.7c0-0.1,0-0.2,0.1-0.3h-0.2
			c-0.9,1.4-2.1,2.7-3.5,3.9c-1.2,1-2.7,1.9-4.5,2.7c-1.8,0.8-3.9,1.2-6.3,1.2c-2.3,0-4.5-0.4-6.4-1.1c-1.9-0.8-3.6-1.8-5-3.1
			c-1.4-1.3-2.5-2.9-3.2-4.7C400.9,83.7,400.5,81.8,400.5,79.7z M416.6,78.2c0,1.1,0.4,2.1,1.2,2.9c0.8,0.8,1.9,1.2,3.4,1.2
			c1.2,0,2.3-0.3,3.3-0.8c1-0.5,1.9-1.2,2.6-2c0.8-0.8,1.3-1.7,1.7-2.7c0.4-1,0.6-2,0.6-3v-1.3H428c-1.3,0-2.6,0.1-3.9,0.3
			c-1.4,0.2-2.6,0.5-3.7,0.9c-1.1,0.4-2,1-2.7,1.7C416.9,76.2,416.6,77.1,416.6,78.2z"/>
	</g>
	<g>
		<path class="st0" d="M453,85c0-2.8,1.4-4.2,4.2-4.2h4.1c2.8,0,4.2,1.4,4.2,4.2v4.1c0,2.8-1.4,4.2-4.2,4.2h-4.1
			c-2.8,0-4.2-1.4-4.2-4.2V85z"/>
		<path class="st0" d="M470.6,73.6c0-2.7,0.5-5.2,1.5-7.7c1-2.5,2.4-4.7,4.3-6.6c1.9-1.9,4.2-3.4,6.9-4.6c2.7-1.1,5.9-1.7,9.4-1.7
			c3,0,5.6,0.4,7.7,1.1c2.1,0.7,3.8,1.6,5.1,2.4c1.1,0.7,1.7,1.6,1.8,2.6c0.1,1-0.2,2.1-0.9,3.2l-1.3,2c-0.7,1.2-1.5,1.8-2.5,2
			c-0.9,0.1-2-0.1-3.2-0.7c-0.8-0.4-1.6-0.8-2.6-1c-1-0.3-2-0.4-3.2-0.4c-1.6,0-3,0.3-4.1,0.8c-1.2,0.5-2.2,1.2-3,2.1
			c-0.8,0.9-1.4,1.9-1.8,3c-0.4,1.1-0.6,2.3-0.6,3.4c0,1.2,0.2,2.3,0.6,3.5c0.4,1.2,1,2.2,1.8,3.1c0.8,0.9,1.8,1.7,3.1,2.2
			c1.2,0.6,2.7,0.9,4.4,0.9c1.3,0,2.6-0.2,3.8-0.7c1.2-0.5,2.3-1,3.3-1.5c1.3-0.7,2.4-1,3.3-0.8c0.9,0.2,1.8,0.9,2.4,2.2l1,1.9
			c0.6,1.2,0.8,2.3,0.6,3.2c-0.2,1-0.7,1.8-1.8,2.5c-1.4,0.9-3.2,1.9-5.6,2.8c-2.4,0.9-5.2,1.4-8.4,1.4c-3.5,0-6.7-0.6-9.4-1.7
			c-2.7-1.1-5-2.6-6.9-4.6c-1.9-1.9-3.3-4.1-4.3-6.6C471.1,78.9,470.6,76.3,470.6,73.6z"/>
		<path class="st0" d="M511.3,89.1c0-1,0.1-1.8,0.4-2.4c0.3-0.6,0.8-1.3,1.4-2.2l12.6-15.8c0.5-0.6,1-1.1,1.4-1.6
			c0.4-0.4,0.8-0.8,1.1-1.1c0.4-0.4,0.7-0.7,1-0.9v-0.2c-0.3,0.1-0.5,0.1-0.8,0.1c-0.3,0.1-0.6,0.1-1,0.1c-0.4,0-1,0-1.6,0h-9.7
			c-2.8,0-4.2-1.4-4.2-4.2v-2.7c0-2.8,1.4-4.2,4.2-4.2H543c2.8,0,4.2,1.1,4.2,3.3v1c0,1-0.1,1.8-0.4,2.5c-0.3,0.6-0.8,1.4-1.4,2.2
			l-12.6,15.9c-0.5,0.6-1,1.1-1.4,1.6c-0.4,0.4-0.8,0.8-1.1,1.1c-0.4,0.4-0.7,0.7-1.1,0.9v0.2c0.3,0,0.5,0,0.8-0.1
			c0.3-0.1,0.6-0.1,1-0.1c0.4,0,1,0,1.6,0h10.6c2.8,0,4.2,1.4,4.2,4.2v2.7c0,2.8-1.4,4.2-4.2,4.2h-27.8c-2.8,0-4.2-1.1-4.2-3.3V89.1
			z"/>
	</g>
</g>
</svg>
