<svg xmlns="http://www.w3.org/2000/svg" width="256" height="256" viewBox="0 0 256 256" fill="none">
    <rect width="256" height="256" rx="128" fill="#008A19" />
    <path fill-rule="evenodd" clip-rule="evenodd"
        d="M221 76L127.5 24L34 76V180L127.5 232L221 180V76ZM130.972 42.1363C128.574 40.7879 125.647 40.7879 123.25 42.1363L53.0279 81.6363C50.5482 83.0311 49.0137 85.6549 49.0137 88.5V167.5C49.0137 170.345 50.5482 172.969 53.0279 174.364L123.25 213.864C123.317 213.901 123.384 213.938 123.451 213.973C124.431 214.487 125.492 214.781 126.565 214.856C126.747 214.869 126.929 214.875 127.111 214.875L127.114 214.875C128.595 214.875 129.979 214.467 131.162 213.756L201.194 174.364C203.673 172.969 205.208 170.345 205.208 167.5V88.7707C205.257 87.3739 204.935 85.9465 204.2 84.6392C203.43 83.2701 202.312 82.2202 201.019 81.5378L166.245 61.9775C166.143 61.9173 166.04 61.8594 165.936 61.804L130.972 42.1363ZM189.458 162.894L134.989 193.533V132.606L189.458 101.967V162.894ZM181.272 88.501L127.113 118.966L108.063 108.25L162.223 77.7858L181.272 88.501ZM88.1379 115.113C88.1168 115.102 88.0956 115.09 88.0746 115.077L64.7637 101.965V162.894L119.239 193.537V132.608L88.1929 115.144C88.1746 115.134 88.1562 115.124 88.1379 115.113ZM146.16 68.7505L92.0006 99.2151L72.9515 88.5L127.111 58.0354L146.16 68.7505Z"
        fill="white" />
</svg>