<svg width="1279" height="300" viewBox="0 0 1279 300" fill="none" xmlns="http://www.w3.org/2000/svg">
<path d="M414.062 200H346.062V187.438L389.875 124.625H347.25V108.625H412.875V121.125L369.125 184H414.062V200ZM455.938 128.812C462.396 128.812 467.958 130.062 472.625 132.562C477.292 135.021 480.896 138.604 483.438 143.312C485.979 148.021 487.25 153.771 487.25 160.562V169.812H442.188C442.396 175.188 444 179.417 447 182.5C450.042 185.542 454.25 187.062 459.625 187.062C464.083 187.062 468.167 186.604 471.875 185.688C475.583 184.771 479.396 183.396 483.312 181.562V196.312C479.854 198.021 476.229 199.271 472.438 200.062C468.688 200.854 464.125 201.25 458.75 201.25C451.75 201.25 445.542 199.958 440.125 197.375C434.75 194.792 430.521 190.854 427.438 185.562C424.396 180.271 422.875 173.604 422.875 165.562C422.875 157.396 424.25 150.604 427 145.188C429.792 139.729 433.667 135.646 438.625 132.938C443.583 130.188 449.354 128.812 455.938 128.812ZM456.062 142.375C452.354 142.375 449.271 143.562 446.812 145.938C444.396 148.312 443 152.042 442.625 157.125H469.375C469.333 154.292 468.812 151.771 467.812 149.562C466.854 147.354 465.396 145.604 463.438 144.312C461.521 143.021 459.062 142.375 456.062 142.375ZM521.812 200H502.75V102.75H521.812V200ZM570.688 128.812C577.146 128.812 582.708 130.062 587.375 132.562C592.042 135.021 595.646 138.604 598.188 143.312C600.729 148.021 602 153.771 602 160.562V169.812H556.938C557.146 175.188 558.75 179.417 561.75 182.5C564.792 185.542 569 187.062 574.375 187.062C578.833 187.062 582.917 186.604 586.625 185.688C590.333 184.771 594.146 183.396 598.062 181.562V196.312C594.604 198.021 590.979 199.271 587.188 200.062C583.438 200.854 578.875 201.25 573.5 201.25C566.5 201.25 560.292 199.958 554.875 197.375C549.5 194.792 545.271 190.854 542.188 185.562C539.146 180.271 537.625 173.604 537.625 165.562C537.625 157.396 539 150.604 541.75 145.188C544.542 139.729 548.417 135.646 553.375 132.938C558.333 130.188 564.104 128.812 570.688 128.812ZM570.812 142.375C567.104 142.375 564.021 143.562 561.562 145.938C559.146 148.312 557.75 152.042 557.375 157.125H584.125C584.083 154.292 583.562 151.771 582.562 149.562C581.604 147.354 580.146 145.604 578.188 144.312C576.271 143.021 573.812 142.375 570.812 142.375ZM657.188 128.812C664.646 128.812 670.646 130.854 675.188 134.938C679.729 138.979 682 145.479 682 154.438V200H662.938V159.188C662.938 154.188 662.021 150.417 660.188 147.875C658.396 145.333 655.562 144.062 651.688 144.062C645.854 144.062 641.875 146.042 639.75 150C637.625 153.958 636.562 159.667 636.562 167.125V200H617.5V130.125H632.062L634.625 139.062H635.688C637.188 136.646 639.042 134.688 641.25 133.188C643.5 131.688 645.979 130.583 648.688 129.875C651.438 129.167 654.271 128.812 657.188 128.812ZM730.25 128.688C739.625 128.688 746.812 130.729 751.812 134.812C756.812 138.896 759.312 145.104 759.312 153.438V200H746L742.312 190.5H741.812C739.812 193 737.771 195.042 735.688 196.625C733.604 198.208 731.208 199.375 728.5 200.125C725.792 200.875 722.5 201.25 718.625 201.25C714.5 201.25 710.792 200.458 707.5 198.875C704.25 197.292 701.688 194.875 699.812 191.625C697.938 188.333 697 184.167 697 179.125C697 171.708 699.604 166.25 704.812 162.75C710.021 159.208 717.833 157.25 728.25 156.875L740.375 156.5V153.438C740.375 149.771 739.417 147.083 737.5 145.375C735.583 143.667 732.917 142.812 729.5 142.812C726.125 142.812 722.812 143.292 719.562 144.25C716.312 145.208 713.062 146.417 709.812 147.875L703.5 135C707.208 133.042 711.354 131.5 715.938 130.375C720.562 129.25 725.333 128.688 730.25 128.688ZM740.375 167.625L733 167.875C726.833 168.042 722.542 169.146 720.125 171.188C717.75 173.229 716.562 175.917 716.562 179.25C716.562 182.167 717.417 184.25 719.125 185.5C720.833 186.708 723.062 187.312 725.812 187.312C729.896 187.312 733.333 186.104 736.125 183.688C738.958 181.271 740.375 177.833 740.375 173.375V167.625ZM754.812 101.938V103.25C753.604 104.417 752.021 105.854 750.062 107.562C748.104 109.271 746 111.062 743.75 112.938C741.5 114.771 739.292 116.542 737.125 118.25C734.958 119.917 733.062 121.312 731.438 122.438H718.75V120.75C720.125 119.167 721.708 117.292 723.5 115.125C725.333 112.917 727.146 110.646 728.938 108.312C730.729 105.979 732.229 103.854 733.438 101.938H754.812ZM831.312 102.75V146.25C831.312 148.875 831.208 151.5 831 154.125C830.792 156.75 830.562 159.375 830.312 162H830.562C831.854 160.167 833.167 158.354 834.5 156.562C835.875 154.771 837.333 153.042 838.875 151.375L858.438 130.125H879.938L852.188 160.438L881.625 200H859.625L839.5 171.688L831.312 178.25V200H812.25V102.75H831.312ZM930.625 128.812C931.583 128.812 932.688 128.875 933.938 129C935.229 129.083 936.271 129.208 937.062 129.375L935.625 147.25C935 147.042 934.104 146.896 932.938 146.812C931.812 146.688 930.833 146.625 930 146.625C927.542 146.625 925.146 146.938 922.812 147.562C920.521 148.188 918.458 149.208 916.625 150.625C914.792 152 913.333 153.833 912.25 156.125C911.208 158.375 910.688 161.146 910.688 164.438V200H891.625V130.125H906.062L908.875 141.875H909.812C911.188 139.5 912.896 137.333 914.938 135.375C917.021 133.375 919.375 131.792 922 130.625C924.667 129.417 927.542 128.812 930.625 128.812ZM978.375 128.688C987.75 128.688 994.938 130.729 999.938 134.812C1004.94 138.896 1007.44 145.104 1007.44 153.438V200H994.125L990.438 190.5H989.938C987.938 193 985.896 195.042 983.812 196.625C981.729 198.208 979.333 199.375 976.625 200.125C973.917 200.875 970.625 201.25 966.75 201.25C962.625 201.25 958.917 200.458 955.625 198.875C952.375 197.292 949.812 194.875 947.938 191.625C946.062 188.333 945.125 184.167 945.125 179.125C945.125 171.708 947.729 166.25 952.938 162.75C958.146 159.208 965.958 157.25 976.375 156.875L988.5 156.5V153.438C988.5 149.771 987.542 147.083 985.625 145.375C983.708 143.667 981.042 142.812 977.625 142.812C974.25 142.812 970.938 143.292 967.688 144.25C964.438 145.208 961.188 146.417 957.938 147.875L951.625 135C955.333 133.042 959.479 131.5 964.062 130.375C968.688 129.25 973.458 128.688 978.375 128.688ZM988.5 167.625L981.125 167.875C974.958 168.042 970.667 169.146 968.25 171.188C965.875 173.229 964.688 175.917 964.688 179.25C964.688 182.167 965.542 184.25 967.25 185.5C968.958 186.708 971.188 187.312 973.938 187.312C978.021 187.312 981.458 186.104 984.25 183.688C987.083 181.271 988.5 177.833 988.5 173.375V167.625ZM1046.19 102.75V125.375C1046.19 128 1046.1 130.604 1045.94 133.188C1045.81 135.771 1045.65 137.771 1045.44 139.188H1046.19C1048.02 136.312 1050.52 133.875 1053.69 131.875C1056.85 129.833 1060.96 128.812 1066 128.812C1073.83 128.812 1080.19 131.875 1085.06 138C1089.94 144.125 1092.38 153.104 1092.38 164.938C1092.38 172.896 1091.25 179.583 1089 185C1086.75 190.375 1083.6 194.438 1079.56 197.188C1075.52 199.896 1070.83 201.25 1065.5 201.25C1060.38 201.25 1056.33 200.333 1053.38 198.5C1050.42 196.667 1048.02 194.604 1046.19 192.312H1044.88L1041.69 200H1027.12V102.75H1046.19ZM1059.88 144.062C1056.54 144.062 1053.9 144.75 1051.94 146.125C1049.98 147.5 1048.54 149.562 1047.62 152.312C1046.75 155.062 1046.27 158.542 1046.19 162.75V164.812C1046.19 171.604 1047.19 176.812 1049.19 180.438C1051.19 184.021 1054.83 185.812 1060.12 185.812C1064.04 185.812 1067.15 184 1069.44 180.375C1071.77 176.75 1072.94 171.521 1072.94 164.688C1072.94 157.854 1071.77 152.708 1069.44 149.25C1067.1 145.792 1063.92 144.062 1059.88 144.062ZM1127.19 130.125V200H1108.12V130.125H1127.19ZM1117.69 102.75C1120.52 102.75 1122.96 103.417 1125 104.75C1127.04 106.042 1128.06 108.479 1128.06 112.062C1128.06 115.604 1127.04 118.062 1125 119.438C1122.96 120.771 1120.52 121.438 1117.69 121.438C1114.81 121.438 1112.35 120.771 1110.31 119.438C1108.31 118.062 1107.31 115.604 1107.31 112.062C1107.31 108.479 1108.31 106.042 1110.31 104.75C1112.35 103.417 1114.81 102.75 1117.69 102.75ZM1175.62 201.25C1168.71 201.25 1162.81 200 1157.94 197.5C1153.06 194.958 1149.35 191.042 1146.81 185.75C1144.27 180.458 1143 173.688 1143 165.438C1143 156.896 1144.44 149.938 1147.31 144.562C1150.23 139.146 1154.25 135.167 1159.38 132.625C1164.54 130.083 1170.52 128.812 1177.31 128.812C1182.15 128.812 1186.31 129.292 1189.81 130.25C1193.35 131.167 1196.44 132.271 1199.06 133.562L1193.44 148.312C1190.44 147.104 1187.65 146.125 1185.06 145.375C1182.48 144.583 1179.9 144.188 1177.31 144.188C1173.98 144.188 1171.21 144.979 1169 146.562C1166.79 148.104 1165.15 150.438 1164.06 153.562C1162.98 156.688 1162.44 160.604 1162.44 165.312C1162.44 169.938 1163.02 173.771 1164.19 176.812C1165.35 179.854 1167.04 182.125 1169.25 183.625C1171.46 185.083 1174.15 185.812 1177.31 185.812C1181.27 185.812 1184.79 185.292 1187.88 184.25C1190.96 183.167 1193.96 181.667 1196.88 179.75V196.062C1193.96 197.896 1190.9 199.208 1187.69 200C1184.52 200.833 1180.5 201.25 1175.62 201.25ZM1241.94 128.812C1248.4 128.812 1253.96 130.062 1258.62 132.562C1263.29 135.021 1266.9 138.604 1269.44 143.312C1271.98 148.021 1273.25 153.771 1273.25 160.562V169.812H1228.19C1228.4 175.188 1230 179.417 1233 182.5C1236.04 185.542 1240.25 187.062 1245.62 187.062C1250.08 187.062 1254.17 186.604 1257.88 185.688C1261.58 184.771 1265.4 183.396 1269.31 181.562V196.312C1265.85 198.021 1262.23 199.271 1258.44 200.062C1254.69 200.854 1250.12 201.25 1244.75 201.25C1237.75 201.25 1231.54 199.958 1226.12 197.375C1220.75 194.792 1216.52 190.854 1213.44 185.562C1210.4 180.271 1208.88 173.604 1208.88 165.562C1208.88 157.396 1210.25 150.604 1213 145.188C1215.79 139.729 1219.67 135.646 1224.62 132.938C1229.58 130.188 1235.35 128.812 1241.94 128.812ZM1242.06 142.375C1238.35 142.375 1235.27 143.562 1232.81 145.938C1230.4 148.312 1229 152.042 1228.62 157.125H1255.38C1255.33 154.292 1254.81 151.771 1253.81 149.562C1252.85 147.354 1251.4 145.604 1249.44 144.312C1247.52 143.021 1245.06 142.375 1242.06 142.375Z" fill="#168523"/>
<rect width="300" height="300" rx="150" fill="#168523"/>
<path d="M150 62.1094L228.125 106.055V193.945L150 237.891L71.875 193.945V106.055L150 62.1094Z" stroke="#F4F7F8" stroke-width="24" stroke-linecap="round" stroke-linejoin="round"/>
<path d="M150 150L228.125 106.055" stroke="#F4F7F8" stroke-width="24" stroke-linecap="round" stroke-linejoin="round"/>
<path d="M150 150V237.891" stroke="#F4F7F8" stroke-width="24" stroke-linecap="round" stroke-linejoin="round"/>
<path d="M150 150L71.875 106.055" stroke="#F4F7F8" stroke-width="24" stroke-linecap="round" stroke-linejoin="round"/>
<path d="M189.063 84.082L110.938 128.027" stroke="#F4F7F8" stroke-width="24" stroke-linecap="round" stroke-linejoin="round"/>
</svg>
