<svg width="349" height="154" viewBox="0 0 349 154" fill="none" xmlns="http://www.w3.org/2000/svg">
<path d="M57.6043 58.5879C57.6043 64.9248 54.646 70.4971 49.4064 74.5313C54.646 78.5654 57.6043 84.3311 57.6043 90.668V99.8877C57.6043 112.184 45.7606 122.168 31.4272 122.168H12.3022C8.2085 122.168 5.021 119.285 5.021 116.024V33.2314C5.021 29.7773 8.2085 27.0879 12.3022 27.0879H31.4272C45.771 27.0879 57.6043 37.0723 57.6043 49.3682V58.5879ZM43.0314 49.3682C43.0314 43.7959 37.7918 39.3838 31.4168 39.3838H19.5835V68.3877H31.4168C37.7918 68.3877 43.0314 63.9668 43.0314 58.5879V49.3682ZM31.4168 80.6748H19.5835V109.679H31.4168C37.7918 109.679 43.0314 105.258 43.0314 99.8789V90.6592C43.0314 85.0869 37.7918 80.6748 31.4168 80.6748Z" fill="#1D1D1B"/>
<path d="M127.719 58.3945C127.719 64.7314 124.76 70.4971 119.75 74.5313C124.76 78.5654 127.719 84.1377 127.719 90.4746V119.092C127.719 120.63 126.125 122.168 124.073 122.168H116.792C114.74 122.168 113.146 120.63 113.146 119.092V90.4746C113.146 85.0957 107.906 80.6748 101.531 80.6748H89.9167V119.092C89.9167 120.63 88.0937 122.168 86.2708 122.168H78.9896C76.9375 122.168 75.3438 120.63 75.3438 119.092V33.2314C75.3438 29.7773 78.5312 27.0879 82.625 27.0879H101.521C116.094 27.0879 127.698 37.0723 127.698 49.1748V58.3945H127.719ZM113.146 49.1748C113.146 43.7959 107.906 39.375 101.531 39.375H89.9167V68.3789H101.531C107.906 68.3789 113.146 63.958 113.146 58.3945V49.1748Z" fill="#1D1D1B"/>
<path d="M199.209 49.1748V119.092C199.209 120.63 197.615 122.168 195.563 122.168H188.281C186.229 122.168 184.636 120.63 184.636 119.092V49.1748C184.636 43.7959 179.396 39.375 173.021 39.375C166.646 39.375 161.188 43.7959 161.188 49.1748V119.092C161.188 120.63 159.594 122.168 157.542 122.168H150.261C148.208 122.168 146.615 120.63 146.615 119.092V49.1748C146.615 37.0723 158.448 27.0879 173.021 27.0879C187.594 27.0879 199.198 37.0723 199.198 49.1748H199.209Z" fill="#E20613"/>
<path d="M270.687 49.3682V119.092C270.687 120.823 269.094 122.168 267.042 122.168H259.76C257.708 122.168 256.115 120.823 256.115 119.092V80.8682H232.667V119.092C232.667 120.823 231.073 122.168 229.021 122.168H221.74C219.688 122.168 218.094 120.823 218.094 119.092V49.3682C218.094 37.2656 229.927 27.2812 244.5 27.2812C258.844 27.2812 270.677 37.2656 270.677 49.3682H270.687ZM256.115 49.3682C256.115 43.9893 250.875 39.5684 244.5 39.5684C238.125 39.5684 232.667 43.9893 232.667 49.3682V68.5723H256.115V49.3682Z" fill="#1D1D1B"/>
<path d="M342.177 49.1748V119.092C342.177 120.63 340.583 122.168 338.531 122.168H331.25C329.198 122.168 327.604 120.63 327.604 119.092V49.1748C327.604 43.7959 322.365 39.375 315.99 39.375C309.615 39.375 304.156 43.7959 304.156 49.1748V119.092C304.156 120.63 302.563 122.168 300.511 122.168H293.229C291.177 122.168 289.583 120.63 289.583 119.092V49.1748C289.583 37.0723 301.417 27.0879 315.99 27.0879C330.563 27.0879 342.167 37.0723 342.167 49.1748H342.177Z" fill="#1D1D1B"/>
<path d="M155.771 3.5332V3.18164C155.771 2.14453 156.844 1.10742 158.229 1.10742H163.146C164.531 1.10742 165.604 2.14453 165.604 3.18164V3.5332C165.604 7.16309 169.136 10.1426 173.438 10.1426C177.74 10.1426 181.427 7.16309 181.427 3.5332V3.18164C181.427 2.14453 182.5 1.10742 183.886 1.10742H188.802C190.188 1.10742 191.261 2.14453 191.261 3.18164V3.5332C191.261 11.6982 183.271 18.4482 173.438 18.4482C163.604 18.4482 155.771 11.707 155.771 3.5332Z" fill="#E20613"/>
</svg>
