<svg xmlns="http://www.w3.org/2000/svg" xmlns:xlink="http://www.w3.org/1999/xlink" version="1.1" id="Layer_1" x="0px"
    y="0px" width="178.233px" height="78.879px" viewBox="0 0 178.233 78.879" enable-background="new 0 0 178.233 78.879"
    xml:space="preserve">
    <g>
        <defs>
            <rect id="SVGID_1_" width="178.233" height="78.879" />
        </defs>
        <clipPath id="SVGID_2_">
            <use xlink:href="#SVGID_1_" overflow="visible" />
        </clipPath>
        <path clip-path="url(#SVGID_2_)"
            d="M86.484,28.966c0.831,0.914,2.098,1.6,3.427,1.6c1.246,0,2.117-0.769,2.117-1.829   c0-1.868-2.699-2.096-4.651-3.239c-1.142-0.665-2.056-1.661-2.056-3.302c0-2.595,2.388-4.091,4.797-4.091   c1.475,0,2.845,0.353,4.217,1.371l-1.455,2.077c-0.581-0.54-1.557-0.956-2.513-0.956c-1.06,0-2.242,0.457-2.242,1.578   c0,2.347,6.708,1.62,6.708,6.521c0,2.576-2.306,4.362-4.922,4.362c-1.952,0-3.759-0.811-5.255-2.181L86.484,28.966z" />
        <polygon clip-path="url(#SVGID_2_)"
            points="107.711,18.313 107.711,20.805 103.869,20.805 103.869,32.85 101.065,32.85    101.065,20.805 97.225,20.805 97.225,18.313  " />
        <path clip-path="url(#SVGID_2_)"
            d="M108.753,32.85l6.229-14.537h1.974l6.229,14.537h-2.929l-1.37-3.219h-5.836l-1.371,3.219   H108.753z M114.11,27.139h3.696l-1.848-4.299L114.11,27.139z" />
        <path clip-path="url(#SVGID_2_)"
            d="M129.316,26.413v6.438h-2.805V18.313h5.296c1.495,0,2.45,0.415,3.179,1.08   c0.789,0.747,1.287,1.806,1.287,2.969s-0.498,2.222-1.287,2.97c-0.396,0.374-0.873,0.664-1.454,0.852l5.44,6.666h-3.469   l-5.171-6.438H129.316z M131.643,23.92c0.81,0,1.162-0.166,1.411-0.437c0.249-0.269,0.415-0.685,0.415-1.1   c0-0.436-0.166-0.852-0.415-1.121c-0.249-0.271-0.602-0.457-1.411-0.457h-2.326v3.115H131.643z" />
        <polygon clip-path="url(#SVGID_2_)"
            points="150.397,18.313 150.397,20.805 146.556,20.805 146.556,32.85 143.752,32.85    143.752,20.805 139.911,20.805 139.911,18.313  " />
        <rect x="161.097" y="18.314" clip-path="url(#SVGID_2_)" width="2.805" height="14.537" />
        <polygon clip-path="url(#SVGID_2_)"
            points="178.232,18.313 178.232,20.805 174.391,20.805 174.391,32.85 171.587,32.85    171.587,20.805 167.746,20.805 167.746,18.313  " />
        <path clip-path="url(#SVGID_2_)"
            d="M153.825,41.951h4.236c0.555,0,1.115,0.046,1.684,0.136c0.567,0.09,1.077,0.275,1.526,0.56   c0.449,0.285,0.817,0.68,1.102,1.185c0.284,0.506,0.427,1.174,0.427,2.005c0,0.748-0.223,1.397-0.666,1.952   s-1.101,0.922-1.973,1.102v0.041c0.483,0.042,0.928,0.156,1.329,0.342c0.4,0.188,0.748,0.438,1.038,0.748   c0.29,0.313,0.517,0.684,0.676,1.112s0.238,0.9,0.238,1.412c0,0.846-0.162,1.534-0.487,2.066c-0.326,0.533-0.735,0.952-1.227,1.258   c-0.492,0.305-1.024,0.513-1.599,0.623c-0.576,0.109-1.112,0.166-1.611,0.166h-4.693V41.951z M155.195,48.309h2.847   c0.706,0,1.281-0.087,1.724-0.261c0.443-0.173,0.789-0.384,1.038-0.633c0.249-0.25,0.416-0.518,0.499-0.8   c0.083-0.284,0.124-0.545,0.124-0.779c0-0.513-0.085-0.939-0.259-1.277c-0.173-0.34-0.405-0.609-0.696-0.811   c-0.291-0.2-0.63-0.344-1.017-0.426c-0.39-0.083-0.797-0.124-1.227-0.124h-3.033V48.309z M155.195,55.412h3.138   c0.802,0,1.45-0.098,1.941-0.291s0.869-0.438,1.133-0.729c0.263-0.29,0.438-0.598,0.528-0.923c0.091-0.326,0.137-0.621,0.137-0.883   c0-0.54-0.105-1.004-0.313-1.393c-0.208-0.386-0.478-0.702-0.81-0.944s-0.71-0.419-1.133-0.529   c-0.423-0.112-0.849-0.167-1.276-0.167h-3.346V55.412z" />
        <path clip-path="url(#SVGID_2_)"
            d="M135.278,49.305c0-1.121,0.186-2.153,0.56-3.096c0.374-0.94,0.894-1.756,1.558-2.439   c0.665-0.687,1.466-1.224,2.399-1.61c0.935-0.388,1.963-0.583,3.085-0.583c1.123,0,2.15,0.195,3.085,0.583   c0.935,0.387,1.735,0.924,2.399,1.61c0.665,0.684,1.184,1.499,1.558,2.439c0.374,0.942,0.561,1.975,0.561,3.096   c0,1.122-0.187,2.156-0.561,3.104c-0.374,0.95-0.893,1.767-1.558,2.452c-0.664,0.685-1.465,1.218-2.399,1.599   c-0.935,0.382-1.962,0.572-3.085,0.572c-1.122,0-2.15-0.19-3.085-0.572c-0.934-0.381-1.734-0.914-2.399-1.599   c-0.664-0.686-1.184-1.502-1.558-2.452C135.464,51.461,135.278,50.427,135.278,49.305 M136.648,49.305   c0,0.914,0.146,1.766,0.437,2.555c0.291,0.79,0.707,1.475,1.247,2.056c0.54,0.582,1.194,1.039,1.963,1.371   c0.768,0.332,1.629,0.499,2.585,0.499s1.818-0.167,2.586-0.499c0.77-0.332,1.423-0.789,1.963-1.371   c0.54-0.581,0.956-1.266,1.246-2.056c0.291-0.789,0.438-1.641,0.438-2.555s-0.146-1.767-0.438-2.556   c-0.29-0.789-0.706-1.474-1.246-2.056s-1.193-1.038-1.963-1.371c-0.768-0.332-1.63-0.498-2.586-0.498s-1.817,0.166-2.585,0.498   c-0.769,0.333-1.423,0.789-1.963,1.371s-0.956,1.267-1.247,2.056C136.795,47.538,136.648,48.391,136.648,49.305" />
        <path clip-path="url(#SVGID_2_)"
            d="M124.931,53.938c0.36,0.623,0.828,1.087,1.402,1.392c0.575,0.304,1.229,0.457,1.963,0.457   c0.457,0,0.887-0.07,1.288-0.208c0.402-0.139,0.751-0.332,1.049-0.582c0.298-0.249,0.533-0.55,0.706-0.904   c0.174-0.353,0.26-0.751,0.26-1.193c0-0.513-0.106-0.936-0.32-1.269c-0.215-0.332-0.503-0.604-0.863-0.819   s-0.765-0.397-1.214-0.551c-0.451-0.151-0.916-0.304-1.394-0.457c-0.478-0.151-0.94-0.324-1.392-0.519   c-0.45-0.195-0.854-0.447-1.214-0.758c-0.361-0.313-0.648-0.703-0.863-1.174c-0.215-0.472-0.321-1.054-0.321-1.745   c0-0.65,0.128-1.229,0.385-1.734c0.256-0.506,0.602-0.928,1.039-1.268c0.435-0.339,0.937-0.596,1.506-0.77   c0.566-0.172,1.163-0.259,1.786-0.259c0.802,0,1.548,0.142,2.232,0.425c0.686,0.285,1.277,0.759,1.776,1.424l-1.185,0.853   c-0.347-0.486-0.752-0.85-1.216-1.091c-0.464-0.242-1.015-0.363-1.65-0.363c-0.444,0-0.865,0.058-1.268,0.175   c-0.401,0.119-0.752,0.293-1.049,0.521c-0.298,0.229-0.537,0.517-0.716,0.861c-0.181,0.348-0.271,0.755-0.271,1.227   c0,0.733,0.188,1.298,0.563,1.692c0.374,0.396,0.84,0.706,1.401,0.936c0.561,0.228,1.171,0.429,1.827,0.602   c0.658,0.173,1.269,0.405,1.828,0.696c0.562,0.291,1.028,0.696,1.403,1.215c0.374,0.52,0.56,1.236,0.56,2.15   c0,0.665-0.124,1.254-0.374,1.766c-0.249,0.512-0.585,0.945-1.007,1.297c-0.423,0.354-0.911,0.621-1.465,0.8   c-0.553,0.181-1.129,0.271-1.723,0.271c-0.971,0-1.864-0.17-2.681-0.509c-0.816-0.34-1.517-0.911-2.099-1.714L124.931,53.938z" />
        <path clip-path="url(#SVGID_2_)"
            d="M121.433,54.352c-0.706,0.957-1.522,1.642-2.451,2.058c-0.928,0.415-1.931,0.623-3.013,0.623   c-1.121,0-2.149-0.19-3.084-0.571c-0.934-0.381-1.734-0.914-2.399-1.601c-0.664-0.685-1.184-1.502-1.559-2.45   c-0.373-0.948-0.559-1.983-0.559-3.105c0-1.121,0.186-2.154,0.559-3.095c0.375-0.942,0.895-1.756,1.559-2.441   c0.665-0.685,1.466-1.222,2.399-1.609c0.935-0.389,1.963-0.582,3.084-0.582c0.999,0,1.929,0.177,2.795,0.529   c0.866,0.354,1.623,0.946,2.275,1.776l-1.122,0.935c-0.457-0.691-1.042-1.197-1.755-1.516c-0.715-0.319-1.444-0.478-2.193-0.478   c-0.955,0-1.816,0.166-2.584,0.498c-0.77,0.332-1.423,0.788-1.963,1.37s-0.956,1.269-1.247,2.058   c-0.29,0.789-0.437,1.641-0.437,2.555s0.146,1.765,0.437,2.554c0.291,0.79,0.707,1.477,1.247,2.058   c0.54,0.582,1.193,1.039,1.963,1.371c0.768,0.332,1.629,0.499,2.584,0.499c0.375,0,0.763-0.045,1.165-0.137   c0.401-0.09,0.793-0.228,1.173-0.415c0.381-0.186,0.745-0.422,1.091-0.706c0.347-0.283,0.651-0.627,0.913-1.027L121.433,54.352z    M116.655,41.037h-1.453l-2.266-2.991h1.288l1.725,2.368l1.786-2.368h1.122L116.655,41.037z" />
        <path clip-path="url(#SVGID_2_)"
            d="M94.646,53.864c-1.1,0-2.118-0.396-2.845-0.977c-1.019-0.81-1.6-2.077-1.6-3.488   c0-1.412,0.581-2.68,1.6-3.489c0.727-0.581,1.745-0.977,2.845-0.977c0.977,0,2.076,0.396,2.762,1.204v-0.996h1.185v5.69   c0,1.059,0.374,1.911,1.62,1.911c1.599,0,2.367-1.661,2.367-3.821c0-4.694-3.469-7.538-7.746-7.538   c-4.279,0-7.747,3.591-7.747,8.016c0,4.484,3.571,8.017,7.913,8.017c1.723,0,3.322-0.623,4.59-1.6l0.643,0.977   c-1.432,1.1-3.28,1.744-5.254,1.744c-5.025,0-9.075-4.091-9.075-9.138c0-5.048,4.049-9.139,9.075-9.139   c4.86,0,8.785,3.449,8.785,8.662c0,2.678-1.246,4.942-3.572,4.942c-1.017,0-2.055-0.415-2.534-1.434   C97.076,53.241,96.058,53.864,94.646,53.864 M97.407,47.779c-0.436-0.894-1.392-1.725-2.762-1.725   c-1.786,0-3.261,1.413-3.261,3.345c0,1.89,1.434,3.344,3.261,3.344c1.393,0,2.326-0.831,2.762-1.725V47.779z" />
        <path clip-path="url(#SVGID_2_)"
            d="M63.438,9.266L32.805,0.071c-0.063-0.018-0.13-0.015-0.195-0.028h-0.002   c-0.319-0.06-0.647-0.062-0.96,0.031L1.418,9.281C0.576,9.537,0,10.315,0,11.193v52.502c0,0.624,0.292,1.213,0.789,1.592   l17.317,13.184c0.349,0.264,0.774,0.408,1.212,0.408h26.219c0.437,0,0.863-0.145,1.211-0.408l17.317-13.184   c0.497-0.379,0.789-0.967,0.789-1.592l0.01-52.513C64.864,10.298,64.285,9.52,63.438,9.266 M4,12.676l22.407-6.823L4,31.704V12.676   z M33.031,4.317l27.832,8.352l-0.007,35.766H4V37.811L33.031,4.317z M44.862,74.879H19.993L4,62.704v-10.27h31.652l14.892,18.119   L44.862,74.879z M53.728,68.13L40.829,52.435h20.027l-0.002,10.27L53.728,68.13z" />
    </g>
    <div xmlns="" id="divScriptsUsed" style="display: none" />
    <script xmlns="" id="globalVarsDetection" src="chrome-extension://cmkdbmfndkfgebldhnkbfhlneefdaaip/js/wrs_env.js" />
    <script xmlns="" />
</svg>